<?xml version="1.0" encoding="utf-8" standalone="no"?>
<!DOCTYPE svg PUBLIC "-//W3C//DTD SVG 1.1//EN"
  "http://www.w3.org/Graphics/SVG/1.1/DTD/svg11.dtd">
<svg xmlns:xlink="http://www.w3.org/1999/xlink" width="1382.4pt" height="696.24pt" viewBox="0 0 1382.4 696.24" xmlns="http://www.w3.org/2000/svg" version="1.1">
 <metadata>
  <rdf:RDF xmlns:dc="http://purl.org/dc/elements/1.1/" xmlns:cc="http://creativecommons.org/ns#" xmlns:rdf="http://www.w3.org/1999/02/22-rdf-syntax-ns#">
   <cc:Work>
    <dc:type rdf:resource="http://purl.org/dc/dcmitype/StillImage"/>
    <dc:date>2023-03-19T17:50:18.956606</dc:date>
    <dc:format>image/svg+xml</dc:format>
    <dc:creator>
     <cc:Agent>
      <dc:title>Matplotlib v3.7.1, https://matplotlib.org/</dc:title>
     </cc:Agent>
    </dc:creator>
   </cc:Work>
  </rdf:RDF>
 </metadata>
 <defs>
  <style type="text/css">*{stroke-linejoin: round; stroke-linecap: butt}</style>
 </defs>
 <g id="figure_1">
  <g id="patch_1">
   <path d="M 0 696.24 
L 1382.4 696.24 
L 1382.4 0 
L 0 0 
z
" style="fill: #ffffff"/>
  </g>
  <g id="axes_1">
   <g id="patch_2">
    <path d="M 172.8 619.6536 
L 1244.16 619.6536 
L 1244.16 83.5488 
L 172.8 83.5488 
z
" style="fill: #ffffff"/>
   </g>
   <g id="matplotlib.axis_1">
    <g id="xtick_1">
     <g id="line2d_1">
      <defs>
       <path id="mfd09364f28" d="M 0 0 
L 0 3.5 
" style="stroke: #000000; stroke-width: 0.8"/>
      </defs>
      <g>
       <use xlink:href="#mfd09364f28" x="215.984903" y="619.6536" style="stroke: #000000; stroke-width: 0.8"/>
      </g>
     </g>
     <g id="text_1">
      <!-- 0 -->
      <g transform="translate(212.803653 634.252038) scale(0.1 -0.1)">
       <defs>
        <path id="DejaVuSans-30" d="M 2034 4250 
Q 1547 4250 1301 3770 
Q 1056 3291 1056 2328 
Q 1056 1369 1301 889 
Q 1547 409 2034 409 
Q 2525 409 2770 889 
Q 3016 1369 3016 2328 
Q 3016 3291 2770 3770 
Q 2525 4250 2034 4250 
z
M 2034 4750 
Q 2819 4750 3233 4129 
Q 3647 3509 3647 2328 
Q 3647 1150 3233 529 
Q 2819 -91 2034 -91 
Q 1250 -91 836 529 
Q 422 1150 422 2328 
Q 422 3509 836 4129 
Q 1250 4750 2034 4750 
z
" transform="scale(0.015625)"/>
       </defs>
       <use xlink:href="#DejaVuSans-30"/>
      </g>
     </g>
    </g>
    <g id="xtick_2">
     <g id="line2d_2">
      <g>
       <use xlink:href="#mfd09364f28" x="339.574239" y="619.6536" style="stroke: #000000; stroke-width: 0.8"/>
      </g>
     </g>
     <g id="text_2">
      <!-- 100000 -->
      <g transform="translate(320.486739 634.252038) scale(0.1 -0.1)">
       <defs>
        <path id="DejaVuSans-31" d="M 794 531 
L 1825 531 
L 1825 4091 
L 703 3866 
L 703 4441 
L 1819 4666 
L 2450 4666 
L 2450 531 
L 3481 531 
L 3481 0 
L 794 0 
L 794 531 
z
" transform="scale(0.015625)"/>
       </defs>
       <use xlink:href="#DejaVuSans-31"/>
       <use xlink:href="#DejaVuSans-30" x="63.623047"/>
       <use xlink:href="#DejaVuSans-30" x="127.246094"/>
       <use xlink:href="#DejaVuSans-30" x="190.869141"/>
       <use xlink:href="#DejaVuSans-30" x="254.492188"/>
       <use xlink:href="#DejaVuSans-30" x="318.115234"/>
      </g>
     </g>
    </g>
    <g id="xtick_3">
     <g id="line2d_3">
      <g>
       <use xlink:href="#mfd09364f28" x="463.163575" y="619.6536" style="stroke: #000000; stroke-width: 0.8"/>
      </g>
     </g>
     <g id="text_3">
      <!-- 200000 -->
      <g transform="translate(444.076075 634.252038) scale(0.1 -0.1)">
       <defs>
        <path id="DejaVuSans-32" d="M 1228 531 
L 3431 531 
L 3431 0 
L 469 0 
L 469 531 
Q 828 903 1448 1529 
Q 2069 2156 2228 2338 
Q 2531 2678 2651 2914 
Q 2772 3150 2772 3378 
Q 2772 3750 2511 3984 
Q 2250 4219 1831 4219 
Q 1534 4219 1204 4116 
Q 875 4013 500 3803 
L 500 4441 
Q 881 4594 1212 4672 
Q 1544 4750 1819 4750 
Q 2544 4750 2975 4387 
Q 3406 4025 3406 3419 
Q 3406 3131 3298 2873 
Q 3191 2616 2906 2266 
Q 2828 2175 2409 1742 
Q 1991 1309 1228 531 
z
" transform="scale(0.015625)"/>
       </defs>
       <use xlink:href="#DejaVuSans-32"/>
       <use xlink:href="#DejaVuSans-30" x="63.623047"/>
       <use xlink:href="#DejaVuSans-30" x="127.246094"/>
       <use xlink:href="#DejaVuSans-30" x="190.869141"/>
       <use xlink:href="#DejaVuSans-30" x="254.492188"/>
       <use xlink:href="#DejaVuSans-30" x="318.115234"/>
      </g>
     </g>
    </g>
    <g id="xtick_4">
     <g id="line2d_4">
      <g>
       <use xlink:href="#mfd09364f28" x="586.752911" y="619.6536" style="stroke: #000000; stroke-width: 0.8"/>
      </g>
     </g>
     <g id="text_4">
      <!-- 300000 -->
      <g transform="translate(567.665411 634.252038) scale(0.1 -0.1)">
       <defs>
        <path id="DejaVuSans-33" d="M 2597 2516 
Q 3050 2419 3304 2112 
Q 3559 1806 3559 1356 
Q 3559 666 3084 287 
Q 2609 -91 1734 -91 
Q 1441 -91 1130 -33 
Q 819 25 488 141 
L 488 750 
Q 750 597 1062 519 
Q 1375 441 1716 441 
Q 2309 441 2620 675 
Q 2931 909 2931 1356 
Q 2931 1769 2642 2001 
Q 2353 2234 1838 2234 
L 1294 2234 
L 1294 2753 
L 1863 2753 
Q 2328 2753 2575 2939 
Q 2822 3125 2822 3475 
Q 2822 3834 2567 4026 
Q 2313 4219 1838 4219 
Q 1578 4219 1281 4162 
Q 984 4106 628 3988 
L 628 4550 
Q 988 4650 1302 4700 
Q 1616 4750 1894 4750 
Q 2613 4750 3031 4423 
Q 3450 4097 3450 3541 
Q 3450 3153 3228 2886 
Q 3006 2619 2597 2516 
z
" transform="scale(0.015625)"/>
       </defs>
       <use xlink:href="#DejaVuSans-33"/>
       <use xlink:href="#DejaVuSans-30" x="63.623047"/>
       <use xlink:href="#DejaVuSans-30" x="127.246094"/>
       <use xlink:href="#DejaVuSans-30" x="190.869141"/>
       <use xlink:href="#DejaVuSans-30" x="254.492188"/>
       <use xlink:href="#DejaVuSans-30" x="318.115234"/>
      </g>
     </g>
    </g>
    <g id="xtick_5">
     <g id="line2d_5">
      <g>
       <use xlink:href="#mfd09364f28" x="710.342247" y="619.6536" style="stroke: #000000; stroke-width: 0.8"/>
      </g>
     </g>
     <g id="text_5">
      <!-- 400000 -->
      <g transform="translate(691.254747 634.252038) scale(0.1 -0.1)">
       <defs>
        <path id="DejaVuSans-34" d="M 2419 4116 
L 825 1625 
L 2419 1625 
L 2419 4116 
z
M 2253 4666 
L 3047 4666 
L 3047 1625 
L 3713 1625 
L 3713 1100 
L 3047 1100 
L 3047 0 
L 2419 0 
L 2419 1100 
L 313 1100 
L 313 1709 
L 2253 4666 
z
" transform="scale(0.015625)"/>
       </defs>
       <use xlink:href="#DejaVuSans-34"/>
       <use xlink:href="#DejaVuSans-30" x="63.623047"/>
       <use xlink:href="#DejaVuSans-30" x="127.246094"/>
       <use xlink:href="#DejaVuSans-30" x="190.869141"/>
       <use xlink:href="#DejaVuSans-30" x="254.492188"/>
       <use xlink:href="#DejaVuSans-30" x="318.115234"/>
      </g>
     </g>
    </g>
    <g id="xtick_6">
     <g id="line2d_6">
      <g>
       <use xlink:href="#mfd09364f28" x="833.931583" y="619.6536" style="stroke: #000000; stroke-width: 0.8"/>
      </g>
     </g>
     <g id="text_6">
      <!-- 500000 -->
      <g transform="translate(814.844083 634.252038) scale(0.1 -0.1)">
       <defs>
        <path id="DejaVuSans-35" d="M 691 4666 
L 3169 4666 
L 3169 4134 
L 1269 4134 
L 1269 2991 
Q 1406 3038 1543 3061 
Q 1681 3084 1819 3084 
Q 2600 3084 3056 2656 
Q 3513 2228 3513 1497 
Q 3513 744 3044 326 
Q 2575 -91 1722 -91 
Q 1428 -91 1123 -41 
Q 819 9 494 109 
L 494 744 
Q 775 591 1075 516 
Q 1375 441 1709 441 
Q 2250 441 2565 725 
Q 2881 1009 2881 1497 
Q 2881 1984 2565 2268 
Q 2250 2553 1709 2553 
Q 1456 2553 1204 2497 
Q 953 2441 691 2322 
L 691 4666 
z
" transform="scale(0.015625)"/>
       </defs>
       <use xlink:href="#DejaVuSans-35"/>
       <use xlink:href="#DejaVuSans-30" x="63.623047"/>
       <use xlink:href="#DejaVuSans-30" x="127.246094"/>
       <use xlink:href="#DejaVuSans-30" x="190.869141"/>
       <use xlink:href="#DejaVuSans-30" x="254.492188"/>
       <use xlink:href="#DejaVuSans-30" x="318.115234"/>
      </g>
     </g>
    </g>
    <g id="xtick_7">
     <g id="line2d_7">
      <g>
       <use xlink:href="#mfd09364f28" x="957.520919" y="619.6536" style="stroke: #000000; stroke-width: 0.8"/>
      </g>
     </g>
     <g id="text_7">
      <!-- 600000 -->
      <g transform="translate(938.433419 634.252038) scale(0.1 -0.1)">
       <defs>
        <path id="DejaVuSans-36" d="M 2113 2584 
Q 1688 2584 1439 2293 
Q 1191 2003 1191 1497 
Q 1191 994 1439 701 
Q 1688 409 2113 409 
Q 2538 409 2786 701 
Q 3034 994 3034 1497 
Q 3034 2003 2786 2293 
Q 2538 2584 2113 2584 
z
M 3366 4563 
L 3366 3988 
Q 3128 4100 2886 4159 
Q 2644 4219 2406 4219 
Q 1781 4219 1451 3797 
Q 1122 3375 1075 2522 
Q 1259 2794 1537 2939 
Q 1816 3084 2150 3084 
Q 2853 3084 3261 2657 
Q 3669 2231 3669 1497 
Q 3669 778 3244 343 
Q 2819 -91 2113 -91 
Q 1303 -91 875 529 
Q 447 1150 447 2328 
Q 447 3434 972 4092 
Q 1497 4750 2381 4750 
Q 2619 4750 2861 4703 
Q 3103 4656 3366 4563 
z
" transform="scale(0.015625)"/>
       </defs>
       <use xlink:href="#DejaVuSans-36"/>
       <use xlink:href="#DejaVuSans-30" x="63.623047"/>
       <use xlink:href="#DejaVuSans-30" x="127.246094"/>
       <use xlink:href="#DejaVuSans-30" x="190.869141"/>
       <use xlink:href="#DejaVuSans-30" x="254.492188"/>
       <use xlink:href="#DejaVuSans-30" x="318.115234"/>
      </g>
     </g>
    </g>
    <g id="xtick_8">
     <g id="line2d_8">
      <g>
       <use xlink:href="#mfd09364f28" x="1081.110255" y="619.6536" style="stroke: #000000; stroke-width: 0.8"/>
      </g>
     </g>
     <g id="text_8">
      <!-- 700000 -->
      <g transform="translate(1062.022755 634.252038) scale(0.1 -0.1)">
       <defs>
        <path id="DejaVuSans-37" d="M 525 4666 
L 3525 4666 
L 3525 4397 
L 1831 0 
L 1172 0 
L 2766 4134 
L 525 4134 
L 525 4666 
z
" transform="scale(0.015625)"/>
       </defs>
       <use xlink:href="#DejaVuSans-37"/>
       <use xlink:href="#DejaVuSans-30" x="63.623047"/>
       <use xlink:href="#DejaVuSans-30" x="127.246094"/>
       <use xlink:href="#DejaVuSans-30" x="190.869141"/>
       <use xlink:href="#DejaVuSans-30" x="254.492188"/>
       <use xlink:href="#DejaVuSans-30" x="318.115234"/>
      </g>
     </g>
    </g>
    <g id="xtick_9">
     <g id="line2d_9">
      <g>
       <use xlink:href="#mfd09364f28" x="1204.699591" y="619.6536" style="stroke: #000000; stroke-width: 0.8"/>
      </g>
     </g>
     <g id="text_9">
      <!-- 800000 -->
      <g transform="translate(1185.612091 634.252038) scale(0.1 -0.1)">
       <defs>
        <path id="DejaVuSans-38" d="M 2034 2216 
Q 1584 2216 1326 1975 
Q 1069 1734 1069 1313 
Q 1069 891 1326 650 
Q 1584 409 2034 409 
Q 2484 409 2743 651 
Q 3003 894 3003 1313 
Q 3003 1734 2745 1975 
Q 2488 2216 2034 2216 
z
M 1403 2484 
Q 997 2584 770 2862 
Q 544 3141 544 3541 
Q 544 4100 942 4425 
Q 1341 4750 2034 4750 
Q 2731 4750 3128 4425 
Q 3525 4100 3525 3541 
Q 3525 3141 3298 2862 
Q 3072 2584 2669 2484 
Q 3125 2378 3379 2068 
Q 3634 1759 3634 1313 
Q 3634 634 3220 271 
Q 2806 -91 2034 -91 
Q 1263 -91 848 271 
Q 434 634 434 1313 
Q 434 1759 690 2068 
Q 947 2378 1403 2484 
z
M 1172 3481 
Q 1172 3119 1398 2916 
Q 1625 2713 2034 2713 
Q 2441 2713 2670 2916 
Q 2900 3119 2900 3481 
Q 2900 3844 2670 4047 
Q 2441 4250 2034 4250 
Q 1625 4250 1398 4047 
Q 1172 3844 1172 3481 
z
" transform="scale(0.015625)"/>
       </defs>
       <use xlink:href="#DejaVuSans-38"/>
       <use xlink:href="#DejaVuSans-30" x="63.623047"/>
       <use xlink:href="#DejaVuSans-30" x="127.246094"/>
       <use xlink:href="#DejaVuSans-30" x="190.869141"/>
       <use xlink:href="#DejaVuSans-30" x="254.492188"/>
       <use xlink:href="#DejaVuSans-30" x="318.115234"/>
      </g>
     </g>
    </g>
    <g id="text_10">
     <!-- bed volumes treated -->
     <g transform="translate(656.494062 647.930163) scale(0.1 -0.1)">
      <defs>
       <path id="DejaVuSans-62" d="M 3116 1747 
Q 3116 2381 2855 2742 
Q 2594 3103 2138 3103 
Q 1681 3103 1420 2742 
Q 1159 2381 1159 1747 
Q 1159 1113 1420 752 
Q 1681 391 2138 391 
Q 2594 391 2855 752 
Q 3116 1113 3116 1747 
z
M 1159 2969 
Q 1341 3281 1617 3432 
Q 1894 3584 2278 3584 
Q 2916 3584 3314 3078 
Q 3713 2572 3713 1747 
Q 3713 922 3314 415 
Q 2916 -91 2278 -91 
Q 1894 -91 1617 61 
Q 1341 213 1159 525 
L 1159 0 
L 581 0 
L 581 4863 
L 1159 4863 
L 1159 2969 
z
" transform="scale(0.015625)"/>
       <path id="DejaVuSans-65" d="M 3597 1894 
L 3597 1613 
L 953 1613 
Q 991 1019 1311 708 
Q 1631 397 2203 397 
Q 2534 397 2845 478 
Q 3156 559 3463 722 
L 3463 178 
Q 3153 47 2828 -22 
Q 2503 -91 2169 -91 
Q 1331 -91 842 396 
Q 353 884 353 1716 
Q 353 2575 817 3079 
Q 1281 3584 2069 3584 
Q 2775 3584 3186 3129 
Q 3597 2675 3597 1894 
z
M 3022 2063 
Q 3016 2534 2758 2815 
Q 2500 3097 2075 3097 
Q 1594 3097 1305 2825 
Q 1016 2553 972 2059 
L 3022 2063 
z
" transform="scale(0.015625)"/>
       <path id="DejaVuSans-64" d="M 2906 2969 
L 2906 4863 
L 3481 4863 
L 3481 0 
L 2906 0 
L 2906 525 
Q 2725 213 2448 61 
Q 2172 -91 1784 -91 
Q 1150 -91 751 415 
Q 353 922 353 1747 
Q 353 2572 751 3078 
Q 1150 3584 1784 3584 
Q 2172 3584 2448 3432 
Q 2725 3281 2906 2969 
z
M 947 1747 
Q 947 1113 1208 752 
Q 1469 391 1925 391 
Q 2381 391 2643 752 
Q 2906 1113 2906 1747 
Q 2906 2381 2643 2742 
Q 2381 3103 1925 3103 
Q 1469 3103 1208 2742 
Q 947 2381 947 1747 
z
" transform="scale(0.015625)"/>
       <path id="DejaVuSans-20" transform="scale(0.015625)"/>
       <path id="DejaVuSans-76" d="M 191 3500 
L 800 3500 
L 1894 563 
L 2988 3500 
L 3597 3500 
L 2284 0 
L 1503 0 
L 191 3500 
z
" transform="scale(0.015625)"/>
       <path id="DejaVuSans-6f" d="M 1959 3097 
Q 1497 3097 1228 2736 
Q 959 2375 959 1747 
Q 959 1119 1226 758 
Q 1494 397 1959 397 
Q 2419 397 2687 759 
Q 2956 1122 2956 1747 
Q 2956 2369 2687 2733 
Q 2419 3097 1959 3097 
z
M 1959 3584 
Q 2709 3584 3137 3096 
Q 3566 2609 3566 1747 
Q 3566 888 3137 398 
Q 2709 -91 1959 -91 
Q 1206 -91 779 398 
Q 353 888 353 1747 
Q 353 2609 779 3096 
Q 1206 3584 1959 3584 
z
" transform="scale(0.015625)"/>
       <path id="DejaVuSans-6c" d="M 603 4863 
L 1178 4863 
L 1178 0 
L 603 0 
L 603 4863 
z
" transform="scale(0.015625)"/>
       <path id="DejaVuSans-75" d="M 544 1381 
L 544 3500 
L 1119 3500 
L 1119 1403 
Q 1119 906 1312 657 
Q 1506 409 1894 409 
Q 2359 409 2629 706 
Q 2900 1003 2900 1516 
L 2900 3500 
L 3475 3500 
L 3475 0 
L 2900 0 
L 2900 538 
Q 2691 219 2414 64 
Q 2138 -91 1772 -91 
Q 1169 -91 856 284 
Q 544 659 544 1381 
z
M 1991 3584 
L 1991 3584 
z
" transform="scale(0.015625)"/>
       <path id="DejaVuSans-6d" d="M 3328 2828 
Q 3544 3216 3844 3400 
Q 4144 3584 4550 3584 
Q 5097 3584 5394 3201 
Q 5691 2819 5691 2113 
L 5691 0 
L 5113 0 
L 5113 2094 
Q 5113 2597 4934 2840 
Q 4756 3084 4391 3084 
Q 3944 3084 3684 2787 
Q 3425 2491 3425 1978 
L 3425 0 
L 2847 0 
L 2847 2094 
Q 2847 2600 2669 2842 
Q 2491 3084 2119 3084 
Q 1678 3084 1418 2786 
Q 1159 2488 1159 1978 
L 1159 0 
L 581 0 
L 581 3500 
L 1159 3500 
L 1159 2956 
Q 1356 3278 1631 3431 
Q 1906 3584 2284 3584 
Q 2666 3584 2933 3390 
Q 3200 3197 3328 2828 
z
" transform="scale(0.015625)"/>
       <path id="DejaVuSans-73" d="M 2834 3397 
L 2834 2853 
Q 2591 2978 2328 3040 
Q 2066 3103 1784 3103 
Q 1356 3103 1142 2972 
Q 928 2841 928 2578 
Q 928 2378 1081 2264 
Q 1234 2150 1697 2047 
L 1894 2003 
Q 2506 1872 2764 1633 
Q 3022 1394 3022 966 
Q 3022 478 2636 193 
Q 2250 -91 1575 -91 
Q 1294 -91 989 -36 
Q 684 19 347 128 
L 347 722 
Q 666 556 975 473 
Q 1284 391 1588 391 
Q 1994 391 2212 530 
Q 2431 669 2431 922 
Q 2431 1156 2273 1281 
Q 2116 1406 1581 1522 
L 1381 1569 
Q 847 1681 609 1914 
Q 372 2147 372 2553 
Q 372 3047 722 3315 
Q 1072 3584 1716 3584 
Q 2034 3584 2315 3537 
Q 2597 3491 2834 3397 
z
" transform="scale(0.015625)"/>
       <path id="DejaVuSans-74" d="M 1172 4494 
L 1172 3500 
L 2356 3500 
L 2356 3053 
L 1172 3053 
L 1172 1153 
Q 1172 725 1289 603 
Q 1406 481 1766 481 
L 2356 481 
L 2356 0 
L 1766 0 
Q 1100 0 847 248 
Q 594 497 594 1153 
L 594 3053 
L 172 3053 
L 172 3500 
L 594 3500 
L 594 4494 
L 1172 4494 
z
" transform="scale(0.015625)"/>
       <path id="DejaVuSans-72" d="M 2631 2963 
Q 2534 3019 2420 3045 
Q 2306 3072 2169 3072 
Q 1681 3072 1420 2755 
Q 1159 2438 1159 1844 
L 1159 0 
L 581 0 
L 581 3500 
L 1159 3500 
L 1159 2956 
Q 1341 3275 1631 3429 
Q 1922 3584 2338 3584 
Q 2397 3584 2469 3576 
Q 2541 3569 2628 3553 
L 2631 2963 
z
" transform="scale(0.015625)"/>
       <path id="DejaVuSans-61" d="M 2194 1759 
Q 1497 1759 1228 1600 
Q 959 1441 959 1056 
Q 959 750 1161 570 
Q 1363 391 1709 391 
Q 2188 391 2477 730 
Q 2766 1069 2766 1631 
L 2766 1759 
L 2194 1759 
z
M 3341 1997 
L 3341 0 
L 2766 0 
L 2766 531 
Q 2569 213 2275 61 
Q 1981 -91 1556 -91 
Q 1019 -91 701 211 
Q 384 513 384 1019 
Q 384 1609 779 1909 
Q 1175 2209 1959 2209 
L 2766 2209 
L 2766 2266 
Q 2766 2663 2505 2880 
Q 2244 3097 1772 3097 
Q 1472 3097 1187 3025 
Q 903 2953 641 2809 
L 641 3341 
Q 956 3463 1253 3523 
Q 1550 3584 1831 3584 
Q 2591 3584 2966 3190 
Q 3341 2797 3341 1997 
z
" transform="scale(0.015625)"/>
      </defs>
      <use xlink:href="#DejaVuSans-62"/>
      <use xlink:href="#DejaVuSans-65" x="63.476562"/>
      <use xlink:href="#DejaVuSans-64" x="125"/>
      <use xlink:href="#DejaVuSans-20" x="188.476562"/>
      <use xlink:href="#DejaVuSans-76" x="220.263672"/>
      <use xlink:href="#DejaVuSans-6f" x="279.443359"/>
      <use xlink:href="#DejaVuSans-6c" x="340.625"/>
      <use xlink:href="#DejaVuSans-75" x="368.408203"/>
      <use xlink:href="#DejaVuSans-6d" x="431.787109"/>
      <use xlink:href="#DejaVuSans-65" x="529.199219"/>
      <use xlink:href="#DejaVuSans-73" x="590.722656"/>
      <use xlink:href="#DejaVuSans-20" x="642.822266"/>
      <use xlink:href="#DejaVuSans-74" x="674.609375"/>
      <use xlink:href="#DejaVuSans-72" x="713.818359"/>
      <use xlink:href="#DejaVuSans-65" x="752.681641"/>
      <use xlink:href="#DejaVuSans-61" x="814.205078"/>
      <use xlink:href="#DejaVuSans-74" x="875.484375"/>
      <use xlink:href="#DejaVuSans-65" x="914.693359"/>
      <use xlink:href="#DejaVuSans-64" x="976.216797"/>
     </g>
    </g>
   </g>
   <g id="matplotlib.axis_2">
    <g id="ytick_1">
     <g id="line2d_10">
      <defs>
       <path id="ma470f84c67" d="M 0 0 
L -3.5 0 
" style="stroke: #000000; stroke-width: 0.8"/>
      </defs>
      <g>
       <use xlink:href="#ma470f84c67" x="172.8" y="598.120383" style="stroke: #000000; stroke-width: 0.8"/>
      </g>
     </g>
     <g id="text_11">
      <!-- 0.0 -->
      <g transform="translate(149.896875 601.919602) scale(0.1 -0.1)">
       <defs>
        <path id="DejaVuSans-2e" d="M 684 794 
L 1344 794 
L 1344 0 
L 684 0 
L 684 794 
z
" transform="scale(0.015625)"/>
       </defs>
       <use xlink:href="#DejaVuSans-30"/>
       <use xlink:href="#DejaVuSans-2e" x="63.623047"/>
       <use xlink:href="#DejaVuSans-30" x="95.410156"/>
      </g>
     </g>
    </g>
    <g id="ytick_2">
     <g id="line2d_11">
      <g>
       <use xlink:href="#ma470f84c67" x="172.8" y="494.919713" style="stroke: #000000; stroke-width: 0.8"/>
      </g>
     </g>
     <g id="text_12">
      <!-- 0.2 -->
      <g transform="translate(149.896875 498.718932) scale(0.1 -0.1)">
       <use xlink:href="#DejaVuSans-30"/>
       <use xlink:href="#DejaVuSans-2e" x="63.623047"/>
       <use xlink:href="#DejaVuSans-32" x="95.410156"/>
      </g>
     </g>
    </g>
    <g id="ytick_3">
     <g id="line2d_12">
      <g>
       <use xlink:href="#ma470f84c67" x="172.8" y="391.719043" style="stroke: #000000; stroke-width: 0.8"/>
      </g>
     </g>
     <g id="text_13">
      <!-- 0.4 -->
      <g transform="translate(149.896875 395.518262) scale(0.1 -0.1)">
       <use xlink:href="#DejaVuSans-30"/>
       <use xlink:href="#DejaVuSans-2e" x="63.623047"/>
       <use xlink:href="#DejaVuSans-34" x="95.410156"/>
      </g>
     </g>
    </g>
    <g id="ytick_4">
     <g id="line2d_13">
      <g>
       <use xlink:href="#ma470f84c67" x="172.8" y="288.518373" style="stroke: #000000; stroke-width: 0.8"/>
      </g>
     </g>
     <g id="text_14">
      <!-- 0.6 -->
      <g transform="translate(149.896875 292.317591) scale(0.1 -0.1)">
       <use xlink:href="#DejaVuSans-30"/>
       <use xlink:href="#DejaVuSans-2e" x="63.623047"/>
       <use xlink:href="#DejaVuSans-36" x="95.410156"/>
      </g>
     </g>
    </g>
    <g id="ytick_5">
     <g id="line2d_14">
      <g>
       <use xlink:href="#ma470f84c67" x="172.8" y="185.317703" style="stroke: #000000; stroke-width: 0.8"/>
      </g>
     </g>
     <g id="text_15">
      <!-- 0.8 -->
      <g transform="translate(149.896875 189.116921) scale(0.1 -0.1)">
       <use xlink:href="#DejaVuSans-30"/>
       <use xlink:href="#DejaVuSans-2e" x="63.623047"/>
       <use xlink:href="#DejaVuSans-38" x="95.410156"/>
      </g>
     </g>
    </g>
    <g id="text_16">
     <!-- concentration ratio -->
     <g transform="translate(143.817187 399.347294) rotate(-90) scale(0.1 -0.1)">
      <defs>
       <path id="DejaVuSans-63" d="M 3122 3366 
L 3122 2828 
Q 2878 2963 2633 3030 
Q 2388 3097 2138 3097 
Q 1578 3097 1268 2742 
Q 959 2388 959 1747 
Q 959 1106 1268 751 
Q 1578 397 2138 397 
Q 2388 397 2633 464 
Q 2878 531 3122 666 
L 3122 134 
Q 2881 22 2623 -34 
Q 2366 -91 2075 -91 
Q 1284 -91 818 406 
Q 353 903 353 1747 
Q 353 2603 823 3093 
Q 1294 3584 2113 3584 
Q 2378 3584 2631 3529 
Q 2884 3475 3122 3366 
z
" transform="scale(0.015625)"/>
       <path id="DejaVuSans-6e" d="M 3513 2113 
L 3513 0 
L 2938 0 
L 2938 2094 
Q 2938 2591 2744 2837 
Q 2550 3084 2163 3084 
Q 1697 3084 1428 2787 
Q 1159 2491 1159 1978 
L 1159 0 
L 581 0 
L 581 3500 
L 1159 3500 
L 1159 2956 
Q 1366 3272 1645 3428 
Q 1925 3584 2291 3584 
Q 2894 3584 3203 3211 
Q 3513 2838 3513 2113 
z
" transform="scale(0.015625)"/>
       <path id="DejaVuSans-69" d="M 603 3500 
L 1178 3500 
L 1178 0 
L 603 0 
L 603 3500 
z
M 603 4863 
L 1178 4863 
L 1178 4134 
L 603 4134 
L 603 4863 
z
" transform="scale(0.015625)"/>
      </defs>
      <use xlink:href="#DejaVuSans-63"/>
      <use xlink:href="#DejaVuSans-6f" x="54.980469"/>
      <use xlink:href="#DejaVuSans-6e" x="116.162109"/>
      <use xlink:href="#DejaVuSans-63" x="179.541016"/>
      <use xlink:href="#DejaVuSans-65" x="234.521484"/>
      <use xlink:href="#DejaVuSans-6e" x="296.044922"/>
      <use xlink:href="#DejaVuSans-74" x="359.423828"/>
      <use xlink:href="#DejaVuSans-72" x="398.632812"/>
      <use xlink:href="#DejaVuSans-61" x="439.746094"/>
      <use xlink:href="#DejaVuSans-74" x="501.025391"/>
      <use xlink:href="#DejaVuSans-69" x="540.234375"/>
      <use xlink:href="#DejaVuSans-6f" x="568.017578"/>
      <use xlink:href="#DejaVuSans-6e" x="629.199219"/>
      <use xlink:href="#DejaVuSans-20" x="692.578125"/>
      <use xlink:href="#DejaVuSans-72" x="724.365234"/>
      <use xlink:href="#DejaVuSans-61" x="765.478516"/>
      <use xlink:href="#DejaVuSans-74" x="826.757812"/>
      <use xlink:href="#DejaVuSans-69" x="865.966797"/>
      <use xlink:href="#DejaVuSans-6f" x="893.75"/>
     </g>
    </g>
   </g>
   <g id="line2d_15">
    <path d="M 228.690616 592.960349 
L 236.701778 580.523346 
L 240.710619 568.086342 
L 243.587204 555.649338 
L 245.921101 543.212334 
L 247.941003 530.77533 
L 249.761324 518.338326 
L 251.448461 505.901323 
L 253.04507 493.464319 
L 254.580768 481.027315 
L 256.077475 468.590311 
L 257.552351 456.153307 
L 259.019532 443.716303 
L 260.49123 431.2793 
L 261.97847 418.842296 
L 263.491626 406.405292 
L 265.040819 393.968288 
L 266.636263 381.531284 
L 268.288559 369.09428 
L 270.008989 356.657277 
L 271.809821 344.220273 
L 273.704634 331.783269 
L 275.708707 319.346265 
L 277.839466 306.909261 
L 280.117049 294.472257 
L 282.564999 282.035254 
L 285.211159 269.59825 
L 288.088825 257.161246 
L 291.238276 244.724242 
L 294.708817 232.287238 
L 298.561569 219.850234 
L 302.87334 207.413231 
L 307.742109 194.976227 
L 313.294965 182.539223 
L 319.699889 170.102219 
L 327.183748 157.665215 
L 336.060696 145.228211 
L 346.778741 132.791208 
L 359.999668 120.354204 
L 376.743981 107.9172 
" clip-path="url(#pc77d08756e)" style="fill: none; stroke: #ffc000; stroke-width: 1.5; stroke-linecap: square"/>
   </g>
   <g id="line2d_16">
    <defs>
     <path id="m237ee27288" d="M 0 3 
C 0.795609 3 1.55874 2.683901 2.12132 2.12132 
C 2.683901 1.55874 3 0.795609 3 0 
C 3 -0.795609 2.683901 -1.55874 2.12132 -2.12132 
C 1.55874 -2.683901 0.795609 -3 0 -3 
C -0.795609 -3 -1.55874 -2.683901 -2.12132 -2.12132 
C -2.683901 -1.55874 -3 -0.795609 -3 0 
C -3 0.795609 -2.683901 1.55874 -2.12132 2.12132 
C -1.55874 2.683901 -0.795609 3 0 3 
z
" style="stroke: #ffc000"/>
    </defs>
    <g clip-path="url(#pc77d08756e)">
     <use xlink:href="#m237ee27288" x="221.498182" y="581.109284" style="fill-opacity: 0; stroke: #ffc000"/>
     <use xlink:href="#m237ee27288" x="232.86932" y="486.603175" style="fill-opacity: 0; stroke: #ffc000"/>
     <use xlink:href="#m237ee27288" x="248.375417" y="368.47054" style="fill-opacity: 0; stroke: #ffc000"/>
     <use xlink:href="#m237ee27288" x="263.881514" y="342.953891" style="fill-opacity: 0; stroke: #ffc000"/>
     <use xlink:href="#m237ee27288" x="279.043031" y="323.107608" style="fill-opacity: 0; stroke: #ffc000"/>
     <use xlink:href="#m237ee27288" x="300.406987" y="249.392844" style="fill-opacity: 0; stroke: #ffc000"/>
     <use xlink:href="#m237ee27288" x="323.493842" y="200.249668" style="fill-opacity: 0; stroke: #ffc000"/>
    </g>
   </g>
   <g id="line2d_17">
    <defs>
     <path id="mfc6005f160" d="M 0 3 
C 0.795609 3 1.55874 2.683901 2.12132 2.12132 
C 2.683901 1.55874 3 0.795609 3 0 
C 3 -0.795609 2.683901 -1.55874 2.12132 -2.12132 
C 1.55874 -2.683901 0.795609 -3 0 -3 
C -0.795609 -3 -1.55874 -2.683901 -2.12132 -2.12132 
C -2.683901 -1.55874 -3 -0.795609 -3 0 
C -3 0.795609 -2.683901 1.55874 -2.12132 2.12132 
C -1.55874 2.683901 -0.795609 3 0 3 
z
" style="stroke: #ffc000"/>
    </defs>
    <g clip-path="url(#pc77d08756e)">
     <use xlink:href="#mfc6005f160" x="221.498182" y="581.109284" style="fill: #ffc000; stroke: #ffc000"/>
     <use xlink:href="#mfc6005f160" x="232.86932" y="486.603175" style="fill: #ffc000; stroke: #ffc000"/>
     <use xlink:href="#mfc6005f160" x="248.375417" y="368.47054" style="fill: #ffc000; stroke: #ffc000"/>
     <use xlink:href="#mfc6005f160" x="263.881514" y="342.953891" style="fill: #ffc000; stroke: #ffc000"/>
     <use xlink:href="#mfc6005f160" x="279.043031" y="323.107608" style="fill: #ffc000; stroke: #ffc000"/>
     <use xlink:href="#mfc6005f160" x="300.406987" y="249.392844" style="fill: #ffc000; stroke: #ffc000"/>
     <use xlink:href="#mfc6005f160" x="323.493842" y="200.249668" style="fill: #ffc000; stroke: #ffc000"/>
    </g>
   </g>
   <g id="line2d_18">
    <path d="M 257.064894 592.960349 
L 280.114994 580.523346 
L 291.649426 568.086342 
L 299.926076 555.649338 
L 306.641276 543.212334 
L 312.453036 530.77533 
L 317.690552 518.338326 
L 322.544861 505.901323 
L 327.138702 493.464319 
L 331.557287 481.027315 
L 335.863686 468.590311 
L 340.10727 456.153307 
L 344.328713 443.716303 
L 348.563152 431.2793 
L 352.842313 418.842296 
L 357.196036 406.405292 
L 361.653451 393.968288 
L 366.243938 381.531284 
L 370.998003 369.09428 
L 375.948109 356.657277 
L 381.129548 344.220273 
L 386.581397 331.783269 
L 392.34761 319.346265 
L 398.478333 306.909261 
L 405.031504 294.472257 
L 412.074865 282.035254 
L 419.688524 269.59825 
L 427.968284 257.161246 
L 437.030036 244.724242 
L 447.015643 232.287238 
L 458.100966 219.850234 
L 470.507001 207.413231 
L 484.515659 194.976227 
L 500.492604 182.539223 
L 518.921159 170.102219 
L 540.454079 157.665215 
L 565.995262 145.228211 
L 596.833737 132.791208 
L 634.873625 120.354204 
L 683.051167 107.9172 
" clip-path="url(#pc77d08756e)" style="fill: none; stroke: #ed7d31; stroke-width: 1.5; stroke-linecap: square"/>
   </g>
   <g id="line2d_19">
    <defs>
     <path id="m48892610e8" d="M 0 3 
C 0.795609 3 1.55874 2.683901 2.12132 2.12132 
C 2.683901 1.55874 3 0.795609 3 0 
C 3 -0.795609 2.683901 -1.55874 2.12132 -2.12132 
C 1.55874 -2.683901 0.795609 -3 0 -3 
C -0.795609 -3 -1.55874 -2.683901 -2.12132 -2.12132 
C -2.683901 -1.55874 -3 -0.795609 -3 0 
C -3 0.795609 -2.683901 1.55874 -2.12132 2.12132 
C -1.55874 2.683901 -0.795609 3 0 3 
z
" style="stroke: #ed7d31"/>
    </defs>
    <g clip-path="url(#pc77d08756e)">
     <use xlink:href="#m48892610e8" x="223.565661" y="586.77965" style="fill-opacity: 0; stroke: #ed7d31"/>
     <use xlink:href="#m48892610e8" x="240.105498" y="554.647573" style="fill-opacity: 0; stroke: #ed7d31"/>
     <use xlink:href="#m48892610e8" x="253.888696" y="582.054345" style="fill-opacity: 0; stroke: #ed7d31"/>
     <use xlink:href="#m48892610e8" x="267.671893" y="583.944467" style="fill-opacity: 0; stroke: #ed7d31"/>
     <use xlink:href="#m48892610e8" x="283.52257" y="582.054345" style="fill-opacity: 0; stroke: #ed7d31"/>
     <use xlink:href="#m48892610e8" x="304.886526" y="556.537695" style="fill-opacity: 0; stroke: #ed7d31"/>
     <use xlink:href="#m48892610e8" x="326.939641" y="486.603175" style="fill-opacity: 0; stroke: #ed7d31"/>
    </g>
   </g>
   <g id="line2d_20">
    <defs>
     <path id="ma7b765f1e7" d="M 0 3 
C 0.795609 3 1.55874 2.683901 2.12132 2.12132 
C 2.683901 1.55874 3 0.795609 3 0 
C 3 -0.795609 2.683901 -1.55874 2.12132 -2.12132 
C 1.55874 -2.683901 0.795609 -3 0 -3 
C -0.795609 -3 -1.55874 -2.683901 -2.12132 -2.12132 
C -2.683901 -1.55874 -3 -0.795609 -3 0 
C -3 0.795609 -2.683901 1.55874 -2.12132 2.12132 
C -1.55874 2.683901 -0.795609 3 0 3 
z
" style="stroke: #ed7d31"/>
    </defs>
    <g clip-path="url(#pc77d08756e)">
     <use xlink:href="#ma7b765f1e7" x="267.671893" y="583.944467" style="fill: #ed7d31; stroke: #ed7d31"/>
     <use xlink:href="#ma7b765f1e7" x="283.52257" y="582.054345" style="fill: #ed7d31; stroke: #ed7d31"/>
     <use xlink:href="#ma7b765f1e7" x="304.886526" y="556.537695" style="fill: #ed7d31; stroke: #ed7d31"/>
     <use xlink:href="#ma7b765f1e7" x="326.939641" y="486.603175" style="fill: #ed7d31; stroke: #ed7d31"/>
    </g>
   </g>
   <g id="line2d_21">
    <path d="M 258.48018 592.960349 
L 278.360055 580.523346 
L 288.308084 568.086342 
L 295.446394 555.649338 
L 301.23801 543.212334 
L 306.250442 530.77533 
L 310.767609 518.338326 
L 314.954275 505.901323 
L 318.916296 493.464319 
L 322.727165 481.027315 
L 326.441278 468.590311 
L 330.101215 456.153307 
L 333.742057 443.716303 
L 337.394107 431.2793 
L 341.084727 418.842296 
L 344.839656 406.405292 
L 348.684014 393.968288 
L 352.643143 381.531284 
L 356.743351 369.09428 
L 361.012638 356.657277 
L 365.481441 344.220273 
L 370.183463 331.783269 
L 375.156612 319.346265 
L 380.444138 306.909261 
L 386.096011 294.472257 
L 392.170654 282.035254 
L 398.737159 269.59825 
L 405.878151 257.161246 
L 413.693583 244.724242 
L 422.305807 232.287238 
L 431.866495 219.850234 
L 442.56625 207.413231 
L 454.648209 194.976227 
L 468.427745 182.539223 
L 484.321704 170.102219 
L 502.893067 157.665215 
L 524.92141 145.228211 
L 551.518476 132.791208 
L 584.326498 120.354204 
L 625.87788 107.9172 
" clip-path="url(#pc77d08756e)" style="fill: none; stroke: #c00000; stroke-width: 1.5; stroke-linecap: square"/>
   </g>
   <g id="line2d_22">
    <defs>
     <path id="mdd3679c7f7" d="M 0 3 
C 0.795609 3 1.55874 2.683901 2.12132 2.12132 
C 2.683901 1.55874 3 0.795609 3 0 
C 3 -0.795609 2.683901 -1.55874 2.12132 -2.12132 
C 1.55874 -2.683901 0.795609 -3 0 -3 
C -0.795609 -3 -1.55874 -2.683901 -2.12132 -2.12132 
C -2.683901 -1.55874 -3 -0.795609 -3 0 
C -3 0.795609 -2.683901 1.55874 -2.12132 2.12132 
C -1.55874 2.683901 -0.795609 3 0 3 
z
" style="stroke: #c00000"/>
    </defs>
    <g clip-path="url(#pc77d08756e)">
     <use xlink:href="#mdd3679c7f7" x="224.599401" y="593.395078" style="fill-opacity: 0; stroke: #c00000"/>
     <use xlink:href="#mdd3679c7f7" x="238.038019" y="531.021046" style="fill-opacity: 0; stroke: #c00000"/>
     <use xlink:href="#mdd3679c7f7" x="253.544116" y="593.395078" style="fill-opacity: 0; stroke: #c00000"/>
     <use xlink:href="#mdd3679c7f7" x="270.083952" y="591.504955" style="fill-opacity: 0; stroke: #c00000"/>
     <use xlink:href="#mdd3679c7f7" x="285.934629" y="562.208062" style="fill-opacity: 0; stroke: #c00000"/>
     <use xlink:href="#mdd3679c7f7" x="309.710645" y="511.174764" style="fill-opacity: 0; stroke: #c00000"/>
     <use xlink:href="#mdd3679c7f7" x="331.41918" y="469.592076" style="fill-opacity: 0; stroke: #c00000"/>
    </g>
   </g>
   <g id="line2d_23">
    <defs>
     <path id="mc6d6b07b61" d="M 0 3 
C 0.795609 3 1.55874 2.683901 2.12132 2.12132 
C 2.683901 1.55874 3 0.795609 3 0 
C 3 -0.795609 2.683901 -1.55874 2.12132 -2.12132 
C 1.55874 -2.683901 0.795609 -3 0 -3 
C -0.795609 -3 -1.55874 -2.683901 -2.12132 -2.12132 
C -2.683901 -1.55874 -3 -0.795609 -3 0 
C -3 0.795609 -2.683901 1.55874 -2.12132 2.12132 
C -1.55874 2.683901 -0.795609 3 0 3 
z
" style="stroke: #c00000"/>
    </defs>
    <g clip-path="url(#pc77d08756e)">
     <use xlink:href="#mc6d6b07b61" x="253.544116" y="593.395078" style="fill: #c00000; stroke: #c00000"/>
     <use xlink:href="#mc6d6b07b61" x="270.083952" y="591.504955" style="fill: #c00000; stroke: #c00000"/>
     <use xlink:href="#mc6d6b07b61" x="285.934629" y="562.208062" style="fill: #c00000; stroke: #c00000"/>
     <use xlink:href="#mc6d6b07b61" x="309.710645" y="511.174764" style="fill: #c00000; stroke: #c00000"/>
     <use xlink:href="#mc6d6b07b61" x="331.41918" y="469.592076" style="fill: #c00000; stroke: #c00000"/>
    </g>
   </g>
   <g id="line2d_24">
    <path d="M 287.876409 592.960349 
L 310.813676 580.523346 
L 322.291646 568.086342 
L 330.52778 555.649338 
L 337.210109 543.212334 
L 342.993419 530.77533 
L 348.205297 518.338326 
L 353.035844 505.901323 
L 357.607198 493.464319 
L 362.004153 481.027315 
L 366.289471 468.590311 
L 370.512283 456.153307 
L 374.713062 443.716303 
L 378.926772 431.2793 
L 383.184986 418.842296 
L 387.517398 406.405292 
L 391.952992 393.968288 
L 396.521009 381.531284 
L 401.251802 369.09428 
L 406.177676 356.657277 
L 411.333752 344.220273 
L 416.758913 331.783269 
L 422.4969 319.346265 
L 428.597612 306.909261 
L 435.118705 294.472257 
L 442.127588 282.035254 
L 449.703977 269.59825 
L 457.943207 257.161246 
L 466.9606 244.724242 
L 476.897327 232.287238 
L 487.928385 219.850234 
L 500.273691 207.413231 
L 514.213775 194.976227 
L 530.112512 182.539223 
L 548.450856 170.102219 
L 569.87837 157.665215 
L 595.294527 145.228211 
L 625.982043 132.791208 
L 663.835721 120.354204 
L 711.777429 107.9172 
" clip-path="url(#pc77d08756e)" style="fill: none; stroke: #00b050; stroke-width: 1.5; stroke-linecap: square"/>
   </g>
   <g id="line2d_25">
    <defs>
     <path id="mce73214599" d="M 0 3 
C 0.795609 3 1.55874 2.683901 2.12132 2.12132 
C 2.683901 1.55874 3 0.795609 3 0 
C 3 -0.795609 2.683901 -1.55874 2.12132 -2.12132 
C 1.55874 -2.683901 0.795609 -3 0 -3 
C -0.795609 -3 -1.55874 -2.683901 -2.12132 -2.12132 
C -2.683901 -1.55874 -3 -0.795609 -3 0 
C -3 0.795609 -2.683901 1.55874 -2.12132 2.12132 
C -1.55874 2.683901 -0.795609 3 0 3 
z
" style="stroke: #00b050"/>
    </defs>
    <g clip-path="url(#pc77d08756e)">
     <use xlink:href="#mce73214599" x="225.288561" y="579.219161" style="fill-opacity: 0; stroke: #00b050"/>
     <use xlink:href="#mce73214599" x="240.450078" y="582.054345" style="fill-opacity: 0; stroke: #00b050"/>
     <use xlink:href="#mce73214599" x="254.922435" y="587.724711" style="fill-opacity: 0; stroke: #00b050"/>
     <use xlink:href="#mce73214599" x="269.050213" y="579.219161" style="fill-opacity: 0; stroke: #00b050"/>
     <use xlink:href="#mce73214599" x="284.90089" y="589.614834" style="fill-opacity: 0; stroke: #00b050"/>
     <use xlink:href="#mce73214599" x="308.676905" y="589.614834" style="fill-opacity: 0; stroke: #00b050"/>
     <use xlink:href="#mce73214599" x="323.838422" y="565.988306" style="fill-opacity: 0; stroke: #00b050"/>
    </g>
   </g>
   <g id="line2d_26">
    <defs>
     <path id="m9aea3888d0" d="M 0 3 
C 0.795609 3 1.55874 2.683901 2.12132 2.12132 
C 2.683901 1.55874 3 0.795609 3 0 
C 3 -0.795609 2.683901 -1.55874 2.12132 -2.12132 
C 1.55874 -2.683901 0.795609 -3 0 -3 
C -0.795609 -3 -1.55874 -2.683901 -2.12132 -2.12132 
C -2.683901 -1.55874 -3 -0.795609 -3 0 
C -3 0.795609 -2.683901 1.55874 -2.12132 2.12132 
C -1.55874 2.683901 -0.795609 3 0 3 
z
" style="stroke: #00b050"/>
    </defs>
    <g clip-path="url(#pc77d08756e)">
     <use xlink:href="#m9aea3888d0" x="284.90089" y="589.614834" style="fill: #00b050; stroke: #00b050"/>
     <use xlink:href="#m9aea3888d0" x="308.676905" y="589.614834" style="fill: #00b050; stroke: #00b050"/>
     <use xlink:href="#m9aea3888d0" x="323.838422" y="565.988306" style="fill: #00b050; stroke: #00b050"/>
    </g>
   </g>
   <g id="line2d_27">
    <path d="M 281.749261 592.960349 
L 323.214706 580.523346 
L 343.964306 568.086342 
L 358.853392 555.649338 
L 370.933547 543.212334 
L 381.388478 530.77533 
L 390.810386 518.338326 
L 399.542934 505.901323 
L 407.806918 493.464319 
L 415.755629 481.027315 
L 423.502525 468.590311 
L 431.136423 456.153307 
L 438.730491 443.716303 
L 446.347937 431.2793 
L 454.045833 418.842296 
L 461.877864 406.405292 
L 469.896427 393.968288 
L 478.154378 381.531284 
L 486.706593 369.09428 
L 495.611471 356.657277 
L 504.932502 344.220273 
L 514.739979 331.783269 
L 525.112974 319.346265 
L 536.141697 306.909261 
L 547.930374 294.472257 
L 560.600865 282.035254 
L 574.29728 269.59825 
L 589.191963 257.161246 
L 605.493392 244.724242 
L 623.45677 232.287238 
L 643.398454 219.850234 
L 665.716004 207.413231 
L 690.916556 194.976227 
L 719.657912 182.539223 
L 752.809534 170.102219 
L 791.545683 157.665215 
L 837.492405 145.228211 
L 892.968566 132.791208 
L 961.399543 120.354204 
L 1048.067419 107.9172 
" clip-path="url(#pc77d08756e)" style="fill: none; stroke: #7030a0; stroke-width: 1.5; stroke-linecap: square"/>
   </g>
   <g id="line2d_28">
    <defs>
     <path id="mb1432e24e6" d="M 0 3 
C 0.795609 3 1.55874 2.683901 2.12132 2.12132 
C 2.683901 1.55874 3 0.795609 3 0 
C 3 -0.795609 2.683901 -1.55874 2.12132 -2.12132 
C 1.55874 -2.683901 0.795609 -3 0 -3 
C -0.795609 -3 -1.55874 -2.683901 -2.12132 -2.12132 
C -2.683901 -1.55874 -3 -0.795609 -3 0 
C -3 0.795609 -2.683901 1.55874 -2.12132 2.12132 
C -1.55874 2.683901 -0.795609 3 0 3 
z
" style="stroke: #7030a0"/>
    </defs>
    <g clip-path="url(#pc77d08756e)">
     <use xlink:href="#mb1432e24e6" x="223.910241" y="582.999406" style="fill-opacity: 0; stroke: #7030a0"/>
     <use xlink:href="#mb1432e24e6" x="249.409156" y="490.38342" style="fill-opacity: 0; stroke: #7030a0"/>
     <use xlink:href="#mb1432e24e6" x="283.86715" y="591.504955" style="fill-opacity: 0; stroke: #7030a0"/>
     <use xlink:href="#mb1432e24e6" x="316.257663" y="586.77965" style="fill-opacity: 0; stroke: #7030a0"/>
     <use xlink:href="#mb1432e24e6" x="348.648177" y="555.592635" style="fill-opacity: 0; stroke: #7030a0"/>
     <use xlink:href="#mb1432e24e6" x="383.45075" y="529.130924" style="fill-opacity: 0; stroke: #7030a0"/>
     <use xlink:href="#mb1432e24e6" x="414.807524" y="490.38342" style="fill-opacity: 0; stroke: #7030a0"/>
    </g>
   </g>
   <g id="line2d_29">
    <defs>
     <path id="me8625c43e5" d="M 0 3 
C 0.795609 3 1.55874 2.683901 2.12132 2.12132 
C 2.683901 1.55874 3 0.795609 3 0 
C 3 -0.795609 2.683901 -1.55874 2.12132 -2.12132 
C 1.55874 -2.683901 0.795609 -3 0 -3 
C -0.795609 -3 -1.55874 -2.683901 -2.12132 -2.12132 
C -2.683901 -1.55874 -3 -0.795609 -3 0 
C -3 0.795609 -2.683901 1.55874 -2.12132 2.12132 
C -1.55874 2.683901 -0.795609 3 0 3 
z
" style="stroke: #7030a0"/>
    </defs>
    <g clip-path="url(#pc77d08756e)">
     <use xlink:href="#me8625c43e5" x="283.86715" y="591.504955" style="fill: #7030a0; stroke: #7030a0"/>
     <use xlink:href="#me8625c43e5" x="316.257663" y="586.77965" style="fill: #7030a0; stroke: #7030a0"/>
     <use xlink:href="#me8625c43e5" x="348.648177" y="555.592635" style="fill: #7030a0; stroke: #7030a0"/>
     <use xlink:href="#me8625c43e5" x="383.45075" y="529.130924" style="fill: #7030a0; stroke: #7030a0"/>
     <use xlink:href="#me8625c43e5" x="414.807524" y="490.38342" style="fill: #7030a0; stroke: #7030a0"/>
    </g>
   </g>
   <g id="line2d_30">
    <path d="M 236.35871 592.960349 
L 249.204746 580.523346 
L 255.632992 568.086342 
L 260.245646 555.649338 
L 263.988089 543.212334 
L 267.227038 530.77533 
L 270.145954 518.338326 
L 272.851306 505.901323 
L 275.411361 493.464319 
L 277.874014 481.027315 
L 280.274011 468.590311 
L 282.639 456.153307 
L 284.991649 443.716303 
L 287.351541 431.2793 
L 289.736357 418.842296 
L 292.162728 406.405292 
L 294.646887 393.968288 
L 297.205208 381.531284 
L 299.854693 369.09428 
L 302.613433 356.657277 
L 305.501097 344.220273 
L 308.539463 331.783269 
L 311.753027 319.346265 
L 315.169737 306.909261 
L 318.82188 294.472257 
L 322.747211 282.035254 
L 326.990374 269.59825 
L 331.604761 257.161246 
L 336.65496 244.724242 
L 342.220032 232.287238 
L 348.397985 219.850234 
L 355.311984 207.413231 
L 363.119139 194.976227 
L 372.02324 182.539223 
L 382.293645 170.102219 
L 394.294142 157.665215 
L 408.528481 145.228211 
L 425.71505 132.791208 
L 446.915034 120.354204 
L 473.764827 107.9172 
" clip-path="url(#pc77d08756e)" style="fill: none; stroke: #0070c0; stroke-width: 1.5; stroke-linecap: square"/>
   </g>
   <g id="line2d_31">
    <defs>
     <path id="m089753435c" d="M 0 3 
C 0.795609 3 1.55874 2.683901 2.12132 2.12132 
C 2.683901 1.55874 3 0.795609 3 0 
C 3 -0.795609 2.683901 -1.55874 2.12132 -2.12132 
C 1.55874 -2.683901 0.795609 -3 0 -3 
C -0.795609 -3 -1.55874 -2.683901 -2.12132 -2.12132 
C -2.683901 -1.55874 -3 -0.795609 -3 0 
C -3 0.795609 -2.683901 1.55874 -2.12132 2.12132 
C -1.55874 2.683901 -0.795609 3 0 3 
z
" style="stroke: #0070c0"/>
    </defs>
    <g clip-path="url(#pc77d08756e)">
     <use xlink:href="#m089753435c" x="225.633141" y="562.208062" style="fill-opacity: 0; stroke: #0070c0"/>
     <use xlink:href="#m089753435c" x="249.753736" y="462.031587" style="fill-opacity: 0; stroke: #0070c0"/>
     <use xlink:href="#m089753435c" x="283.86715" y="338.228585" style="fill-opacity: 0; stroke: #0070c0"/>
     <use xlink:href="#m089753435c" x="316.257663" y="281.52492" style="fill-opacity: 0; stroke: #0070c0"/>
     <use xlink:href="#m089753435c" x="348.303597" y="227.656439" style="fill-opacity: 0; stroke: #0070c0"/>
     <use xlink:href="#m089753435c" x="380.004951" y="179.458324" style="fill-opacity: 0; stroke: #0070c0"/>
     <use xlink:href="#m089753435c" x="413.773784" y="167.17253" style="fill-opacity: 0; stroke: #0070c0"/>
    </g>
   </g>
   <g id="line2d_32">
    <defs>
     <path id="m3b440a2cd7" d="M 0 3 
C 0.795609 3 1.55874 2.683901 2.12132 2.12132 
C 2.683901 1.55874 3 0.795609 3 0 
C 3 -0.795609 2.683901 -1.55874 2.12132 -2.12132 
C 1.55874 -2.683901 0.795609 -3 0 -3 
C -0.795609 -3 -1.55874 -2.683901 -2.12132 -2.12132 
C -2.683901 -1.55874 -3 -0.795609 -3 0 
C -3 0.795609 -2.683901 1.55874 -2.12132 2.12132 
C -1.55874 2.683901 -0.795609 3 0 3 
z
" style="stroke: #0070c0"/>
    </defs>
    <g clip-path="url(#pc77d08756e)">
     <use xlink:href="#m3b440a2cd7" x="225.633141" y="562.208062" style="fill: #0070c0; stroke: #0070c0"/>
     <use xlink:href="#m3b440a2cd7" x="249.753736" y="462.031587" style="fill: #0070c0; stroke: #0070c0"/>
     <use xlink:href="#m3b440a2cd7" x="283.86715" y="338.228585" style="fill: #0070c0; stroke: #0070c0"/>
     <use xlink:href="#m3b440a2cd7" x="316.257663" y="281.52492" style="fill: #0070c0; stroke: #0070c0"/>
     <use xlink:href="#m3b440a2cd7" x="348.303597" y="227.656439" style="fill: #0070c0; stroke: #0070c0"/>
     <use xlink:href="#m3b440a2cd7" x="380.004951" y="179.458324" style="fill: #0070c0; stroke: #0070c0"/>
     <use xlink:href="#m3b440a2cd7" x="413.773784" y="167.17253" style="fill: #0070c0; stroke: #0070c0"/>
    </g>
   </g>
   <g id="line2d_33">
    <path d="M 320.156965 592.960349 
L 355.43017 580.523346 
L 373.081129 568.086342 
L 385.746754 555.649338 
L 396.022919 543.212334 
L 404.916564 530.77533 
L 412.931451 518.338326 
L 420.359924 505.901323 
L 427.389807 493.464319 
L 434.151497 481.027315 
L 440.741511 468.590311 
L 447.235401 456.153307 
L 453.695409 443.716303 
L 460.175303 431.2793 
L 466.723635 418.842296 
L 473.38607 406.405292 
L 480.207181 393.968288 
L 487.231931 381.531284 
L 494.507001 369.09428 
L 502.08207 356.657277 
L 510.011145 344.220273 
L 518.354022 331.783269 
L 527.177967 319.346265 
L 536.559716 306.909261 
L 546.587931 294.472257 
L 557.366275 282.035254 
L 569.017336 269.59825 
L 581.687722 257.161246 
L 595.554778 244.724242 
L 610.835595 232.287238 
L 627.799288 219.850234 
L 646.784048 207.413231 
L 668.221276 194.976227 
L 692.670542 182.539223 
L 720.871468 170.102219 
L 753.822956 157.665215 
L 792.908225 145.228211 
L 840.099856 132.791208 
L 898.311694 120.354204 
L 972.037027 107.9172 
" clip-path="url(#pc77d08756e)" style="fill: none; stroke: #bdd7ee; stroke-width: 1.5; stroke-linecap: square"/>
   </g>
   <g id="line2d_34">
    <defs>
     <path id="mb2dd500368" d="M 0 3 
C 0.795609 3 1.55874 2.683901 2.12132 2.12132 
C 2.683901 1.55874 3 0.795609 3 0 
C 3 -0.795609 2.683901 -1.55874 2.12132 -2.12132 
C 1.55874 -2.683901 0.795609 -3 0 -3 
C -0.795609 -3 -1.55874 -2.683901 -2.12132 -2.12132 
C -2.683901 -1.55874 -3 -0.795609 -3 0 
C -3 0.795609 -2.683901 1.55874 -2.12132 2.12132 
C -1.55874 2.683901 -0.795609 3 0 3 
z
" style="stroke: #bdd7ee"/>
    </defs>
    <g clip-path="url(#pc77d08756e)">
     <use xlink:href="#mb2dd500368" x="224.254821" y="568.823489" style="fill-opacity: 0; stroke: #bdd7ee"/>
     <use xlink:href="#mb2dd500368" x="248.719997" y="580.164222" style="fill-opacity: 0; stroke: #bdd7ee"/>
     <use xlink:href="#mb2dd500368" x="281.79967" y="586.77965" style="fill-opacity: 0; stroke: #bdd7ee"/>
     <use xlink:href="#mb2dd500368" x="313.845604" y="577.329039" style="fill-opacity: 0; stroke: #bdd7ee"/>
     <use xlink:href="#mb2dd500368" x="344.513218" y="583.944467" style="fill-opacity: 0; stroke: #bdd7ee"/>
     <use xlink:href="#mb2dd500368" x="377.592892" y="569.768551" style="fill-opacity: 0; stroke: #bdd7ee"/>
     <use xlink:href="#mb2dd500368" x="411.017145" y="517.790191" style="fill-opacity: 0; stroke: #bdd7ee"/>
    </g>
   </g>
   <g id="line2d_35">
    <defs>
     <path id="m4dd74571dc" d="M 0 3 
C 0.795609 3 1.55874 2.683901 2.12132 2.12132 
C 2.683901 1.55874 3 0.795609 3 0 
C 3 -0.795609 2.683901 -1.55874 2.12132 -2.12132 
C 1.55874 -2.683901 0.795609 -3 0 -3 
C -0.795609 -3 -1.55874 -2.683901 -2.12132 -2.12132 
C -2.683901 -1.55874 -3 -0.795609 -3 0 
C -3 0.795609 -2.683901 1.55874 -2.12132 2.12132 
C -1.55874 2.683901 -0.795609 3 0 3 
z
" style="stroke: #bdd7ee"/>
    </defs>
    <g clip-path="url(#pc77d08756e)">
     <use xlink:href="#m4dd74571dc" x="344.513218" y="583.944467" style="fill: #bdd7ee; stroke: #bdd7ee"/>
     <use xlink:href="#m4dd74571dc" x="377.592892" y="569.768551" style="fill: #bdd7ee; stroke: #bdd7ee"/>
     <use xlink:href="#m4dd74571dc" x="411.017145" y="517.790191" style="fill: #bdd7ee; stroke: #bdd7ee"/>
    </g>
   </g>
   <g id="line2d_36">
    <path d="M 308.049318 592.960349 
L 330.832585 580.523346 
L 342.233492 568.086342 
L 350.414328 555.649338 
L 357.051792 543.212334 
L 362.796274 530.77533 
L 367.973159 518.338326 
L 372.771274 505.901323 
L 377.311935 493.464319 
L 381.679369 481.027315 
L 385.935916 468.590311 
L 390.130376 456.153307 
L 394.302951 443.716303 
L 398.488371 431.2793 
L 402.717994 418.842296 
L 407.021319 406.405292 
L 411.427133 393.968288 
L 415.96448 381.531284 
L 420.66351 369.09428 
L 425.556313 356.657277 
L 430.67777 344.220273 
L 436.066507 331.783269 
L 441.765969 319.346265 
L 447.825721 306.909261 
L 454.303032 294.472257 
L 461.264857 282.035254 
L 468.790378 269.59825 
L 476.97429 257.161246 
L 485.931141 244.724242 
L 495.801152 232.287238 
L 506.758149 219.850234 
L 519.020569 207.413231 
L 532.867059 194.976227 
L 548.659051 182.539223 
L 566.874273 170.102219 
L 588.157923 157.665215 
L 613.403436 145.228211 
L 643.884917 132.791208 
L 681.484445 120.354204 
L 729.104274 107.9172 
" clip-path="url(#pc77d08756e)" style="fill: none; stroke: #000000; stroke-width: 1.5; stroke-linecap: square"/>
   </g>
   <g id="line2d_37">
    <defs>
     <path id="m1e29118380" d="M 0 3 
C 0.795609 3 1.55874 2.683901 2.12132 2.12132 
C 2.683901 1.55874 3 0.795609 3 0 
C 3 -0.795609 2.683901 -1.55874 2.12132 -2.12132 
C 1.55874 -2.683901 0.795609 -3 0 -3 
C -0.795609 -3 -1.55874 -2.683901 -2.12132 -2.12132 
C -2.683901 -1.55874 -3 -0.795609 -3 0 
C -3 0.795609 -2.683901 1.55874 -2.12132 2.12132 
C -1.55874 2.683901 -0.795609 3 0 3 
z
" style="stroke: #000000"/>
    </defs>
    <g clip-path="url(#pc77d08756e)">
     <use xlink:href="#m1e29118380" x="223.910241" y="595.2852" style="fill-opacity: 0; stroke: #000000"/>
     <use xlink:href="#m1e29118380" x="249.409156" y="583.944467" style="fill-opacity: 0; stroke: #000000"/>
     <use xlink:href="#m1e29118380" x="280.76593" y="586.77965" style="fill-opacity: 0; stroke: #000000"/>
     <use xlink:href="#m1e29118380" x="308.332325" y="589.614834" style="fill-opacity: 0; stroke: #000000"/>
     <use xlink:href="#m1e29118380" x="334.17582" y="585.834589" style="fill-opacity: 0; stroke: #000000"/>
     <use xlink:href="#m1e29118380" x="363.465114" y="523.460557" style="fill-opacity: 0; stroke: #000000"/>
     <use xlink:href="#m1e29118380" x="398.267687" y="433.679755" style="fill-opacity: 0; stroke: #000000"/>
    </g>
   </g>
   <g id="line2d_38">
    <defs>
     <path id="m401ba1cd60" d="M 0 3 
C 0.795609 3 1.55874 2.683901 2.12132 2.12132 
C 2.683901 1.55874 3 0.795609 3 0 
C 3 -0.795609 2.683901 -1.55874 2.12132 -2.12132 
C 1.55874 -2.683901 0.795609 -3 0 -3 
C -0.795609 -3 -1.55874 -2.683901 -2.12132 -2.12132 
C -2.683901 -1.55874 -3 -0.795609 -3 0 
C -3 0.795609 -2.683901 1.55874 -2.12132 2.12132 
C -1.55874 2.683901 -0.795609 3 0 3 
z
" style="stroke: #000000"/>
    </defs>
    <g clip-path="url(#pc77d08756e)">
     <use xlink:href="#m401ba1cd60" x="308.332325" y="589.614834" style="stroke: #000000"/>
     <use xlink:href="#m401ba1cd60" x="334.17582" y="585.834589" style="stroke: #000000"/>
     <use xlink:href="#m401ba1cd60" x="363.465114" y="523.460557" style="stroke: #000000"/>
     <use xlink:href="#m401ba1cd60" x="398.267687" y="433.679755" style="stroke: #000000"/>
    </g>
   </g>
   <g id="line2d_39">
    <path d="M 293.398489 592.960349 
L 342.2091 580.523346 
L 366.634273 568.086342 
L 384.160804 555.649338 
L 398.38083 543.212334 
L 410.687742 530.77533 
L 421.778641 518.338326 
L 432.058027 505.901323 
L 441.78593 493.464319 
L 451.142671 481.027315 
L 460.261848 468.590311 
L 469.24801 456.153307 
L 478.187287 443.716303 
L 487.154083 431.2793 
L 496.215581 418.842296 
L 505.434973 406.405292 
L 514.87394 393.968288 
L 524.5947 381.531284 
L 534.661849 369.09428 
L 545.144133 356.657277 
L 556.116286 344.220273 
L 567.660922 331.783269 
L 579.871515 319.346265 
L 592.85386 306.909261 
L 606.730776 294.472257 
L 621.645711 282.035254 
L 637.768302 269.59825 
L 655.30142 257.161246 
L 674.490476 244.724242 
L 695.635876 232.287238 
L 719.110019 219.850234 
L 745.380887 207.413231 
L 775.04545 194.976227 
L 808.878034 182.539223 
L 847.902117 170.102219 
L 893.499966 157.665215 
L 947.585664 145.228211 
L 1012.888841 132.791208 
L 1093.441642 120.354204 
L 1195.461818 107.9172 
" clip-path="url(#pc77d08756e)" style="fill: none; stroke: #a5a5a5; stroke-width: 1.5; stroke-linecap: square"/>
   </g>
   <g id="line2d_40">
    <defs>
     <path id="m68e342796c" d="M 0 3 
C 0.795609 3 1.55874 2.683901 2.12132 2.12132 
C 2.683901 1.55874 3 0.795609 3 0 
C 3 -0.795609 2.683901 -1.55874 2.12132 -2.12132 
C 1.55874 -2.683901 0.795609 -3 0 -3 
C -0.795609 -3 -1.55874 -2.683901 -2.12132 -2.12132 
C -2.683901 -1.55874 -3 -0.795609 -3 0 
C -3 0.795609 -2.683901 1.55874 -2.12132 2.12132 
C -1.55874 2.683901 -0.795609 3 0 3 
z
" style="stroke: #a5a5a5"/>
    </defs>
    <g clip-path="url(#pc77d08756e)">
     <use xlink:href="#m68e342796c" x="223.565661" y="592.450016" style="fill-opacity: 0; stroke: #a5a5a5"/>
     <use xlink:href="#m68e342796c" x="248.719997" y="586.77965" style="fill-opacity: 0; stroke: #a5a5a5"/>
     <use xlink:href="#m68e342796c" x="282.48883" y="586.77965" style="fill-opacity: 0; stroke: #a5a5a5"/>
     <use xlink:href="#m68e342796c" x="317.291403" y="585.834589" style="fill-opacity: 0; stroke: #a5a5a5"/>
     <use xlink:href="#m68e342796c" x="348.992757" y="554.647573" style="fill-opacity: 0; stroke: #a5a5a5"/>
     <use xlink:href="#m68e342796c" x="377.248312" y="581.109284" style="fill-opacity: 0; stroke: #a5a5a5"/>
     <use xlink:href="#m68e342796c" x="411.706305" y="529.130924" style="fill-opacity: 0; stroke: #a5a5a5"/>
    </g>
   </g>
   <g id="line2d_41">
    <defs>
     <path id="m6a1a15ea1c" d="M 0 3 
C 0.795609 3 1.55874 2.683901 2.12132 2.12132 
C 2.683901 1.55874 3 0.795609 3 0 
C 3 -0.795609 2.683901 -1.55874 2.12132 -2.12132 
C 1.55874 -2.683901 0.795609 -3 0 -3 
C -0.795609 -3 -1.55874 -2.683901 -2.12132 -2.12132 
C -2.683901 -1.55874 -3 -0.795609 -3 0 
C -3 0.795609 -2.683901 1.55874 -2.12132 2.12132 
C -1.55874 2.683901 -0.795609 3 0 3 
z
" style="stroke: #a5a5a5"/>
    </defs>
    <g clip-path="url(#pc77d08756e)">
     <use xlink:href="#m6a1a15ea1c" x="282.48883" y="586.77965" style="fill: #a5a5a5; stroke: #a5a5a5"/>
     <use xlink:href="#m6a1a15ea1c" x="377.248312" y="581.109284" style="fill: #a5a5a5; stroke: #a5a5a5"/>
     <use xlink:href="#m6a1a15ea1c" x="411.706305" y="529.130924" style="fill: #a5a5a5; stroke: #a5a5a5"/>
    </g>
   </g>
   <g id="line2d_42">
    <path d="M 309.577666 592.960349 
L 339.513644 580.523346 
L 354.493818 568.086342 
L 365.242995 555.649338 
L 373.964262 543.212334 
L 381.5122 530.77533 
L 388.314346 518.338326 
L 394.61881 505.901323 
L 400.584993 493.464319 
L 406.323565 481.027315 
L 411.916437 468.590311 
L 417.427729 456.153307 
L 422.910267 443.716303 
L 428.409682 431.2793 
L 433.967178 418.842296 
L 439.621513 406.405292 
L 445.410514 393.968288 
L 451.372343 381.531284 
L 457.546614 369.09428 
L 463.975491 356.657277 
L 470.704809 344.220273 
L 477.785317 331.783269 
L 485.274101 319.346265 
L 493.236288 306.909261 
L 501.747123 294.472257 
L 510.894584 282.035254 
L 520.782711 269.59825 
L 531.535928 257.161246 
L 543.304745 244.724242 
L 556.273405 232.287238 
L 570.670305 219.850234 
L 586.78246 207.413231 
L 604.975998 194.976227 
L 625.725821 182.539223 
L 649.659635 170.102219 
L 677.625198 157.665215 
L 710.796434 145.228211 
L 750.847449 132.791208 
L 800.251193 120.354204 
L 862.821067 107.9172 
" clip-path="url(#pc77d08756e)" style="fill: none; stroke: #f8cbad; stroke-width: 1.5; stroke-linecap: square"/>
   </g>
   <g id="line2d_43">
    <defs>
     <path id="mb3b2e6b85e" d="M 0 3 
C 0.795609 3 1.55874 2.683901 2.12132 2.12132 
C 2.683901 1.55874 3 0.795609 3 0 
C 3 -0.795609 2.683901 -1.55874 2.12132 -2.12132 
C 1.55874 -2.683901 0.795609 -3 0 -3 
C -0.795609 -3 -1.55874 -2.683901 -2.12132 -2.12132 
C -2.683901 -1.55874 -3 -0.795609 -3 0 
C -3 0.795609 -2.683901 1.55874 -2.12132 2.12132 
C -1.55874 2.683901 -0.795609 3 0 3 
z
" style="stroke: #f8cbad"/>
    </defs>
    <g clip-path="url(#pc77d08756e)">
     <use xlink:href="#mb3b2e6b85e" x="221.498182" y="583.944467" style="fill-opacity: 0; stroke: #f8cbad"/>
     <use xlink:href="#mb3b2e6b85e" x="245.274197" y="585.834589" style="fill-opacity: 0; stroke: #f8cbad"/>
     <use xlink:href="#mb3b2e6b85e" x="275.252651" y="585.834589" style="fill-opacity: 0; stroke: #f8cbad"/>
     <use xlink:href="#mb3b2e6b85e" x="306.954005" y="585.834589" style="fill-opacity: 0; stroke: #f8cbad"/>
     <use xlink:href="#mb3b2e6b85e" x="337.966199" y="589.614834" style="fill-opacity: 0; stroke: #f8cbad"/>
     <use xlink:href="#mb3b2e6b85e" x="371.045873" y="558.427818" style="fill-opacity: 0; stroke: #f8cbad"/>
     <use xlink:href="#mb3b2e6b85e" x="404.470126" y="481.87787" style="fill-opacity: 0; stroke: #f8cbad"/>
    </g>
   </g>
   <g id="line2d_44">
    <defs>
     <path id="m063ea58ff9" d="M 0 3 
C 0.795609 3 1.55874 2.683901 2.12132 2.12132 
C 2.683901 1.55874 3 0.795609 3 0 
C 3 -0.795609 2.683901 -1.55874 2.12132 -2.12132 
C 1.55874 -2.683901 0.795609 -3 0 -3 
C -0.795609 -3 -1.55874 -2.683901 -2.12132 -2.12132 
C -2.683901 -1.55874 -3 -0.795609 -3 0 
C -3 0.795609 -2.683901 1.55874 -2.12132 2.12132 
C -1.55874 2.683901 -0.795609 3 0 3 
z
" style="stroke: #f8cbad"/>
    </defs>
    <g clip-path="url(#pc77d08756e)">
     <use xlink:href="#m063ea58ff9" x="306.954005" y="585.834589" style="fill: #f8cbad; stroke: #f8cbad"/>
     <use xlink:href="#m063ea58ff9" x="337.966199" y="589.614834" style="fill: #f8cbad; stroke: #f8cbad"/>
     <use xlink:href="#m063ea58ff9" x="371.045873" y="558.427818" style="fill: #f8cbad; stroke: #f8cbad"/>
     <use xlink:href="#m063ea58ff9" x="404.470126" y="481.87787" style="fill: #f8cbad; stroke: #f8cbad"/>
    </g>
   </g>
   <g id="patch_3">
    <path d="M 172.8 619.6536 
L 172.8 83.5488 
" style="fill: none; stroke: #000000; stroke-width: 0.8; stroke-linejoin: miter; stroke-linecap: square"/>
   </g>
   <g id="patch_4">
    <path d="M 1244.16 619.6536 
L 1244.16 83.5488 
" style="fill: none; stroke: #000000; stroke-width: 0.8; stroke-linejoin: miter; stroke-linecap: square"/>
   </g>
   <g id="patch_5">
    <path d="M 172.8 619.6536 
L 1244.16 619.6536 
" style="fill: none; stroke: #000000; stroke-width: 0.8; stroke-linejoin: miter; stroke-linecap: square"/>
   </g>
   <g id="patch_6">
    <path d="M 172.8 83.5488 
L 1244.16 83.5488 
" style="fill: none; stroke: #000000; stroke-width: 0.8; stroke-linejoin: miter; stroke-linecap: square"/>
   </g>
   <g id="legend_1">
    <g id="patch_7">
     <path d="M 1140.082772 616.1836 
L 1239.302 616.1836 
Q 1240.69 616.1836 1240.69 614.7956 
L 1240.69 513.623413 
Q 1240.69 512.235413 1239.302 512.235413 
L 1140.082772 512.235413 
Q 1138.694772 512.235413 1138.694772 513.623413 
L 1138.694772 614.7956 
Q 1138.694772 616.1836 1140.082772 616.1836 
z
" style="fill: #ffffff; opacity: 0.8; stroke: #cccccc; stroke-linejoin: miter"/>
    </g>
    <g id="line2d_45">
     <path d="M 1141.470772 517.855728 
L 1148.410772 517.855728 
L 1155.350772 517.855728 
" style="fill: none; stroke: #ffc000; stroke-width: 1.5; stroke-linecap: square"/>
    </g>
    <g id="text_17">
     <!-- OCWD -->
     <g transform="translate(1160.902772 520.284728) scale(0.0694 -0.0694)">
      <defs>
       <path id="DejaVuSans-4f" d="M 2522 4238 
Q 1834 4238 1429 3725 
Q 1025 3213 1025 2328 
Q 1025 1447 1429 934 
Q 1834 422 2522 422 
Q 3209 422 3611 934 
Q 4013 1447 4013 2328 
Q 4013 3213 3611 3725 
Q 3209 4238 2522 4238 
z
M 2522 4750 
Q 3503 4750 4090 4092 
Q 4678 3434 4678 2328 
Q 4678 1225 4090 567 
Q 3503 -91 2522 -91 
Q 1538 -91 948 565 
Q 359 1222 359 2328 
Q 359 3434 948 4092 
Q 1538 4750 2522 4750 
z
" transform="scale(0.015625)"/>
       <path id="DejaVuSans-43" d="M 4122 4306 
L 4122 3641 
Q 3803 3938 3442 4084 
Q 3081 4231 2675 4231 
Q 1875 4231 1450 3742 
Q 1025 3253 1025 2328 
Q 1025 1406 1450 917 
Q 1875 428 2675 428 
Q 3081 428 3442 575 
Q 3803 722 4122 1019 
L 4122 359 
Q 3791 134 3420 21 
Q 3050 -91 2638 -91 
Q 1578 -91 968 557 
Q 359 1206 359 2328 
Q 359 3453 968 4101 
Q 1578 4750 2638 4750 
Q 3056 4750 3426 4639 
Q 3797 4528 4122 4306 
z
" transform="scale(0.015625)"/>
       <path id="DejaVuSans-57" d="M 213 4666 
L 850 4666 
L 1831 722 
L 2809 4666 
L 3519 4666 
L 4500 722 
L 5478 4666 
L 6119 4666 
L 4947 0 
L 4153 0 
L 3169 4050 
L 2175 0 
L 1381 0 
L 213 4666 
z
" transform="scale(0.015625)"/>
       <path id="DejaVuSans-44" d="M 1259 4147 
L 1259 519 
L 2022 519 
Q 2988 519 3436 956 
Q 3884 1394 3884 2338 
Q 3884 3275 3436 3711 
Q 2988 4147 2022 4147 
L 1259 4147 
z
M 628 4666 
L 1925 4666 
Q 3281 4666 3915 4102 
Q 4550 3538 4550 2338 
Q 4550 1131 3912 565 
Q 3275 0 1925 0 
L 628 0 
L 628 4666 
z
" transform="scale(0.015625)"/>
      </defs>
      <use xlink:href="#DejaVuSans-4f"/>
      <use xlink:href="#DejaVuSans-43" x="78.710938"/>
      <use xlink:href="#DejaVuSans-57" x="148.535156"/>
      <use xlink:href="#DejaVuSans-44" x="247.412109"/>
     </g>
    </g>
    <g id="line2d_46">
     <path d="M 1141.470772 528.042347 
L 1148.410772 528.042347 
L 1155.350772 528.042347 
" style="fill: none; stroke: #ed7d31; stroke-width: 1.5; stroke-linecap: square"/>
    </g>
    <g id="text_18">
     <!-- Serrano Water District -->
     <g transform="translate(1160.902772 530.471347) scale(0.0694 -0.0694)">
      <defs>
       <path id="DejaVuSans-53" d="M 3425 4513 
L 3425 3897 
Q 3066 4069 2747 4153 
Q 2428 4238 2131 4238 
Q 1616 4238 1336 4038 
Q 1056 3838 1056 3469 
Q 1056 3159 1242 3001 
Q 1428 2844 1947 2747 
L 2328 2669 
Q 3034 2534 3370 2195 
Q 3706 1856 3706 1288 
Q 3706 609 3251 259 
Q 2797 -91 1919 -91 
Q 1588 -91 1214 -16 
Q 841 59 441 206 
L 441 856 
Q 825 641 1194 531 
Q 1563 422 1919 422 
Q 2459 422 2753 634 
Q 3047 847 3047 1241 
Q 3047 1584 2836 1778 
Q 2625 1972 2144 2069 
L 1759 2144 
Q 1053 2284 737 2584 
Q 422 2884 422 3419 
Q 422 4038 858 4394 
Q 1294 4750 2059 4750 
Q 2388 4750 2728 4690 
Q 3069 4631 3425 4513 
z
" transform="scale(0.015625)"/>
      </defs>
      <use xlink:href="#DejaVuSans-53"/>
      <use xlink:href="#DejaVuSans-65" x="63.476562"/>
      <use xlink:href="#DejaVuSans-72" x="125"/>
      <use xlink:href="#DejaVuSans-72" x="164.363281"/>
      <use xlink:href="#DejaVuSans-61" x="205.476562"/>
      <use xlink:href="#DejaVuSans-6e" x="266.755859"/>
      <use xlink:href="#DejaVuSans-6f" x="330.134766"/>
      <use xlink:href="#DejaVuSans-20" x="391.316406"/>
      <use xlink:href="#DejaVuSans-57" x="423.103516"/>
      <use xlink:href="#DejaVuSans-61" x="515.605469"/>
      <use xlink:href="#DejaVuSans-74" x="576.884766"/>
      <use xlink:href="#DejaVuSans-65" x="616.09375"/>
      <use xlink:href="#DejaVuSans-72" x="677.617188"/>
      <use xlink:href="#DejaVuSans-20" x="718.730469"/>
      <use xlink:href="#DejaVuSans-44" x="750.517578"/>
      <use xlink:href="#DejaVuSans-69" x="827.519531"/>
      <use xlink:href="#DejaVuSans-73" x="855.302734"/>
      <use xlink:href="#DejaVuSans-74" x="907.402344"/>
      <use xlink:href="#DejaVuSans-72" x="946.611328"/>
      <use xlink:href="#DejaVuSans-69" x="987.724609"/>
      <use xlink:href="#DejaVuSans-63" x="1015.507812"/>
      <use xlink:href="#DejaVuSans-74" x="1070.488281"/>
     </g>
    </g>
    <g id="line2d_47">
     <path d="M 1141.470772 538.228966 
L 1148.410772 538.228966 
L 1155.350772 538.228966 
" style="fill: none; stroke: #c00000; stroke-width: 1.5; stroke-linecap: square"/>
    </g>
    <g id="text_19">
     <!-- Anaheim -->
     <g transform="translate(1160.902772 540.657966) scale(0.0694 -0.0694)">
      <defs>
       <path id="DejaVuSans-41" d="M 2188 4044 
L 1331 1722 
L 3047 1722 
L 2188 4044 
z
M 1831 4666 
L 2547 4666 
L 4325 0 
L 3669 0 
L 3244 1197 
L 1141 1197 
L 716 0 
L 50 0 
L 1831 4666 
z
" transform="scale(0.015625)"/>
       <path id="DejaVuSans-68" d="M 3513 2113 
L 3513 0 
L 2938 0 
L 2938 2094 
Q 2938 2591 2744 2837 
Q 2550 3084 2163 3084 
Q 1697 3084 1428 2787 
Q 1159 2491 1159 1978 
L 1159 0 
L 581 0 
L 581 4863 
L 1159 4863 
L 1159 2956 
Q 1366 3272 1645 3428 
Q 1925 3584 2291 3584 
Q 2894 3584 3203 3211 
Q 3513 2838 3513 2113 
z
" transform="scale(0.015625)"/>
      </defs>
      <use xlink:href="#DejaVuSans-41"/>
      <use xlink:href="#DejaVuSans-6e" x="68.408203"/>
      <use xlink:href="#DejaVuSans-61" x="131.787109"/>
      <use xlink:href="#DejaVuSans-68" x="193.066406"/>
      <use xlink:href="#DejaVuSans-65" x="256.445312"/>
      <use xlink:href="#DejaVuSans-69" x="317.96875"/>
      <use xlink:href="#DejaVuSans-6d" x="345.751953"/>
     </g>
    </g>
    <g id="line2d_48">
     <path d="M 1141.470772 548.415584 
L 1148.410772 548.415584 
L 1155.350772 548.415584 
" style="fill: none; stroke: #00b050; stroke-width: 1.5; stroke-linecap: square"/>
    </g>
    <g id="text_20">
     <!-- Fullerton F-3A/1 -->
     <g transform="translate(1160.902772 550.844584) scale(0.0694 -0.0694)">
      <defs>
       <path id="DejaVuSans-46" d="M 628 4666 
L 3309 4666 
L 3309 4134 
L 1259 4134 
L 1259 2759 
L 3109 2759 
L 3109 2228 
L 1259 2228 
L 1259 0 
L 628 0 
L 628 4666 
z
" transform="scale(0.015625)"/>
       <path id="DejaVuSans-2d" d="M 313 2009 
L 1997 2009 
L 1997 1497 
L 313 1497 
L 313 2009 
z
" transform="scale(0.015625)"/>
       <path id="DejaVuSans-2f" d="M 1625 4666 
L 2156 4666 
L 531 -594 
L 0 -594 
L 1625 4666 
z
" transform="scale(0.015625)"/>
      </defs>
      <use xlink:href="#DejaVuSans-46"/>
      <use xlink:href="#DejaVuSans-75" x="52.019531"/>
      <use xlink:href="#DejaVuSans-6c" x="115.398438"/>
      <use xlink:href="#DejaVuSans-6c" x="143.181641"/>
      <use xlink:href="#DejaVuSans-65" x="170.964844"/>
      <use xlink:href="#DejaVuSans-72" x="232.488281"/>
      <use xlink:href="#DejaVuSans-74" x="273.601562"/>
      <use xlink:href="#DejaVuSans-6f" x="312.810547"/>
      <use xlink:href="#DejaVuSans-6e" x="373.992188"/>
      <use xlink:href="#DejaVuSans-20" x="437.371094"/>
      <use xlink:href="#DejaVuSans-46" x="469.158203"/>
      <use xlink:href="#DejaVuSans-2d" x="526.677734"/>
      <use xlink:href="#DejaVuSans-33" x="562.761719"/>
      <use xlink:href="#DejaVuSans-41" x="626.384766"/>
      <use xlink:href="#DejaVuSans-2f" x="694.792969"/>
      <use xlink:href="#DejaVuSans-31" x="728.484375"/>
     </g>
    </g>
    <g id="line2d_49">
     <path d="M 1141.470772 558.602203 
L 1148.410772 558.602203 
L 1155.350772 558.602203 
" style="fill: none; stroke: #7030a0; stroke-width: 1.5; stroke-linecap: square"/>
    </g>
    <g id="text_21">
     <!-- Fullerton F-5/1 -->
     <g transform="translate(1160.902772 561.031203) scale(0.0694 -0.0694)">
      <use xlink:href="#DejaVuSans-46"/>
      <use xlink:href="#DejaVuSans-75" x="52.019531"/>
      <use xlink:href="#DejaVuSans-6c" x="115.398438"/>
      <use xlink:href="#DejaVuSans-6c" x="143.181641"/>
      <use xlink:href="#DejaVuSans-65" x="170.964844"/>
      <use xlink:href="#DejaVuSans-72" x="232.488281"/>
      <use xlink:href="#DejaVuSans-74" x="273.601562"/>
      <use xlink:href="#DejaVuSans-6f" x="312.810547"/>
      <use xlink:href="#DejaVuSans-6e" x="373.992188"/>
      <use xlink:href="#DejaVuSans-20" x="437.371094"/>
      <use xlink:href="#DejaVuSans-46" x="469.158203"/>
      <use xlink:href="#DejaVuSans-2d" x="526.677734"/>
      <use xlink:href="#DejaVuSans-35" x="562.761719"/>
      <use xlink:href="#DejaVuSans-2f" x="626.384766"/>
      <use xlink:href="#DejaVuSans-31" x="660.076172"/>
     </g>
    </g>
    <g id="line2d_50">
     <path d="M 1141.470772 568.788822 
L 1148.410772 568.788822 
L 1155.350772 568.788822 
" style="fill: none; stroke: #0070c0; stroke-width: 1.5; stroke-linecap: square"/>
    </g>
    <g id="text_22">
     <!-- Santa Ana -->
     <g transform="translate(1160.902772 571.217822) scale(0.0694 -0.0694)">
      <use xlink:href="#DejaVuSans-53"/>
      <use xlink:href="#DejaVuSans-61" x="63.476562"/>
      <use xlink:href="#DejaVuSans-6e" x="124.755859"/>
      <use xlink:href="#DejaVuSans-74" x="188.134766"/>
      <use xlink:href="#DejaVuSans-61" x="227.34375"/>
      <use xlink:href="#DejaVuSans-20" x="288.623047"/>
      <use xlink:href="#DejaVuSans-41" x="320.410156"/>
      <use xlink:href="#DejaVuSans-6e" x="388.818359"/>
      <use xlink:href="#DejaVuSans-61" x="452.197266"/>
     </g>
    </g>
    <g id="line2d_51">
     <path d="M 1141.470772 578.975441 
L 1148.410772 578.975441 
L 1155.350772 578.975441 
" style="fill: none; stroke: #bdd7ee; stroke-width: 1.5; stroke-linecap: square"/>
    </g>
    <g id="text_23">
     <!-- Tustin -->
     <g transform="translate(1160.902772 581.404441) scale(0.0694 -0.0694)">
      <defs>
       <path id="DejaVuSans-54" d="M -19 4666 
L 3928 4666 
L 3928 4134 
L 2272 4134 
L 2272 0 
L 1638 0 
L 1638 4134 
L -19 4134 
L -19 4666 
z
" transform="scale(0.015625)"/>
      </defs>
      <use xlink:href="#DejaVuSans-54"/>
      <use xlink:href="#DejaVuSans-75" x="45.958984"/>
      <use xlink:href="#DejaVuSans-73" x="109.337891"/>
      <use xlink:href="#DejaVuSans-74" x="161.4375"/>
      <use xlink:href="#DejaVuSans-69" x="200.646484"/>
      <use xlink:href="#DejaVuSans-6e" x="228.429688"/>
     </g>
    </g>
    <g id="line2d_52">
     <path d="M 1141.470772 589.162059 
L 1148.410772 589.162059 
L 1155.350772 589.162059 
" style="fill: none; stroke: #000000; stroke-width: 1.5; stroke-linecap: square"/>
    </g>
    <g id="text_24">
     <!-- Orange -->
     <g transform="translate(1160.902772 591.591059) scale(0.0694 -0.0694)">
      <defs>
       <path id="DejaVuSans-67" d="M 2906 1791 
Q 2906 2416 2648 2759 
Q 2391 3103 1925 3103 
Q 1463 3103 1205 2759 
Q 947 2416 947 1791 
Q 947 1169 1205 825 
Q 1463 481 1925 481 
Q 2391 481 2648 825 
Q 2906 1169 2906 1791 
z
M 3481 434 
Q 3481 -459 3084 -895 
Q 2688 -1331 1869 -1331 
Q 1566 -1331 1297 -1286 
Q 1028 -1241 775 -1147 
L 775 -588 
Q 1028 -725 1275 -790 
Q 1522 -856 1778 -856 
Q 2344 -856 2625 -561 
Q 2906 -266 2906 331 
L 2906 616 
Q 2728 306 2450 153 
Q 2172 0 1784 0 
Q 1141 0 747 490 
Q 353 981 353 1791 
Q 353 2603 747 3093 
Q 1141 3584 1784 3584 
Q 2172 3584 2450 3431 
Q 2728 3278 2906 2969 
L 2906 3500 
L 3481 3500 
L 3481 434 
z
" transform="scale(0.015625)"/>
      </defs>
      <use xlink:href="#DejaVuSans-4f"/>
      <use xlink:href="#DejaVuSans-72" x="78.710938"/>
      <use xlink:href="#DejaVuSans-61" x="119.824219"/>
      <use xlink:href="#DejaVuSans-6e" x="181.103516"/>
      <use xlink:href="#DejaVuSans-67" x="244.482422"/>
      <use xlink:href="#DejaVuSans-65" x="307.958984"/>
     </g>
    </g>
    <g id="line2d_53">
     <path d="M 1141.470772 599.348678 
L 1148.410772 599.348678 
L 1155.350772 599.348678 
" style="fill: none; stroke: #a5a5a5; stroke-width: 1.5; stroke-linecap: square"/>
    </g>
    <g id="text_25">
     <!-- Garden Grove -->
     <g transform="translate(1160.902772 601.777678) scale(0.0694 -0.0694)">
      <defs>
       <path id="DejaVuSans-47" d="M 3809 666 
L 3809 1919 
L 2778 1919 
L 2778 2438 
L 4434 2438 
L 4434 434 
Q 4069 175 3628 42 
Q 3188 -91 2688 -91 
Q 1594 -91 976 548 
Q 359 1188 359 2328 
Q 359 3472 976 4111 
Q 1594 4750 2688 4750 
Q 3144 4750 3555 4637 
Q 3966 4525 4313 4306 
L 4313 3634 
Q 3963 3931 3569 4081 
Q 3175 4231 2741 4231 
Q 1884 4231 1454 3753 
Q 1025 3275 1025 2328 
Q 1025 1384 1454 906 
Q 1884 428 2741 428 
Q 3075 428 3337 486 
Q 3600 544 3809 666 
z
" transform="scale(0.015625)"/>
      </defs>
      <use xlink:href="#DejaVuSans-47"/>
      <use xlink:href="#DejaVuSans-61" x="77.490234"/>
      <use xlink:href="#DejaVuSans-72" x="138.769531"/>
      <use xlink:href="#DejaVuSans-64" x="178.132812"/>
      <use xlink:href="#DejaVuSans-65" x="241.609375"/>
      <use xlink:href="#DejaVuSans-6e" x="303.132812"/>
      <use xlink:href="#DejaVuSans-20" x="366.511719"/>
      <use xlink:href="#DejaVuSans-47" x="398.298828"/>
      <use xlink:href="#DejaVuSans-72" x="475.789062"/>
      <use xlink:href="#DejaVuSans-6f" x="514.652344"/>
      <use xlink:href="#DejaVuSans-76" x="575.833984"/>
      <use xlink:href="#DejaVuSans-65" x="635.013672"/>
     </g>
    </g>
    <g id="line2d_54">
     <path d="M 1141.470772 609.535297 
L 1148.410772 609.535297 
L 1155.350772 609.535297 
" style="fill: none; stroke: #f8cbad; stroke-width: 1.5; stroke-linecap: square"/>
    </g>
    <g id="text_26">
     <!-- IRWD -->
     <g transform="translate(1160.902772 611.964297) scale(0.0694 -0.0694)">
      <defs>
       <path id="DejaVuSans-49" d="M 628 4666 
L 1259 4666 
L 1259 0 
L 628 0 
L 628 4666 
z
" transform="scale(0.015625)"/>
       <path id="DejaVuSans-52" d="M 2841 2188 
Q 3044 2119 3236 1894 
Q 3428 1669 3622 1275 
L 4263 0 
L 3584 0 
L 2988 1197 
Q 2756 1666 2539 1819 
Q 2322 1972 1947 1972 
L 1259 1972 
L 1259 0 
L 628 0 
L 628 4666 
L 2053 4666 
Q 2853 4666 3247 4331 
Q 3641 3997 3641 3322 
Q 3641 2881 3436 2590 
Q 3231 2300 2841 2188 
z
M 1259 4147 
L 1259 2491 
L 2053 2491 
Q 2509 2491 2742 2702 
Q 2975 2913 2975 3322 
Q 2975 3731 2742 3939 
Q 2509 4147 2053 4147 
L 1259 4147 
z
" transform="scale(0.015625)"/>
      </defs>
      <use xlink:href="#DejaVuSans-49"/>
      <use xlink:href="#DejaVuSans-52" x="29.492188"/>
      <use xlink:href="#DejaVuSans-57" x="94.974609"/>
      <use xlink:href="#DejaVuSans-44" x="193.851562"/>
     </g>
    </g>
   </g>
  </g>
 </g>
 <defs>
  <clipPath id="pc77d08756e">
   <rect x="172.8" y="83.5488" width="1071.36" height="536.1048"/>
  </clipPath>
 </defs>
</svg>
