<?xml version="1.0" encoding="utf-8" standalone="no"?>
<!DOCTYPE svg PUBLIC "-//W3C//DTD SVG 1.1//EN"
  "http://www.w3.org/Graphics/SVG/1.1/DTD/svg11.dtd">
<svg xmlns:xlink="http://www.w3.org/1999/xlink" width="240.592812pt" height="229.565469pt" viewBox="0 0 240.592812 229.565469" xmlns="http://www.w3.org/2000/svg" version="1.1">
 <metadata>
  <rdf:RDF xmlns:dc="http://purl.org/dc/elements/1.1/" xmlns:cc="http://creativecommons.org/ns#" xmlns:rdf="http://www.w3.org/1999/02/22-rdf-syntax-ns#">
   <cc:Work>
    <dc:type rdf:resource="http://purl.org/dc/dcmitype/StillImage"/>
    <dc:date>2025-10-21T14:45:39.771804</dc:date>
    <dc:format>image/svg+xml</dc:format>
    <dc:creator>
     <cc:Agent>
      <dc:title>Matplotlib v3.10.1, https://matplotlib.org/</dc:title>
     </cc:Agent>
    </dc:creator>
   </cc:Work>
  </rdf:RDF>
 </metadata>
 <defs>
  <style type="text/css">*{stroke-linejoin: round; stroke-linecap: butt}</style>
 </defs>
 <g id="figure_1">
  <g id="patch_1">
   <path d="M 0 229.565469 
L 240.592812 229.565469 
L 240.592812 0 
L 0 0 
z
" style="fill: #ffffff"/>
  </g>
  <g id="axes_1">
   <g id="patch_2">
    <path d="M 46.481875 190.958906 
L 227.831875 190.958906 
L 227.831875 10.778906 
L 46.481875 10.778906 
z
" style="fill: #ffffff"/>
   </g>
   <g id="matplotlib.axis_1">
    <g id="xtick_1">
     <g id="line2d_1">
      <defs>
       <path id="m19dc16dbc0" d="M 0 0 
L 0 3.5 
" style="stroke: #000000; stroke-width: 0.8"/>
      </defs>
      <g>
       <use xlink:href="#m19dc16dbc0" x="46.481875" y="190.958906" style="stroke: #000000; stroke-width: 0.8"/>
      </g>
     </g>
     <g id="text_1">
      <text style="font-size: 10px; font-family: 'Arial', serif; text-anchor: middle" x="46.481875" y="205.116719" transform="rotate(-0 46.481875 205.116719)">30</text>
     </g>
    </g>
    <g id="xtick_2">
     <g id="line2d_2">
      <g>
       <use xlink:href="#m19dc16dbc0" x="82.751875" y="190.958906" style="stroke: #000000; stroke-width: 0.8"/>
      </g>
     </g>
     <g id="text_2">
      <text style="font-size: 10px; font-family: 'Arial', serif; text-anchor: middle" x="82.751875" y="205.116719" transform="rotate(-0 82.751875 205.116719)">40</text>
     </g>
    </g>
    <g id="xtick_3">
     <g id="line2d_3">
      <g>
       <use xlink:href="#m19dc16dbc0" x="119.021875" y="190.958906" style="stroke: #000000; stroke-width: 0.8"/>
      </g>
     </g>
     <g id="text_3">
      <text style="font-size: 10px; font-family: 'Arial', serif; text-anchor: middle" x="119.021875" y="205.116719" transform="rotate(-0 119.021875 205.116719)">50</text>
     </g>
    </g>
    <g id="xtick_4">
     <g id="line2d_4">
      <g>
       <use xlink:href="#m19dc16dbc0" x="155.291875" y="190.958906" style="stroke: #000000; stroke-width: 0.8"/>
      </g>
     </g>
     <g id="text_4">
      <text style="font-size: 10px; font-family: 'Arial', serif; text-anchor: middle" x="155.291875" y="205.116719" transform="rotate(-0 155.291875 205.116719)">60</text>
     </g>
    </g>
    <g id="xtick_5">
     <g id="line2d_5">
      <g>
       <use xlink:href="#m19dc16dbc0" x="191.561875" y="190.958906" style="stroke: #000000; stroke-width: 0.8"/>
      </g>
     </g>
     <g id="text_5">
      <text style="font-size: 10px; font-family: 'Arial', serif; text-anchor: middle" x="191.561875" y="205.116719" transform="rotate(-0 191.561875 205.116719)">70</text>
     </g>
    </g>
    <g id="xtick_6">
     <g id="line2d_6">
      <g>
       <use xlink:href="#m19dc16dbc0" x="227.831875" y="190.958906" style="stroke: #000000; stroke-width: 0.8"/>
      </g>
     </g>
     <g id="text_6">
      <text style="font-size: 10px; font-family: 'Arial', serif; text-anchor: middle" x="227.831875" y="205.116719" transform="rotate(-0 227.831875 205.116719)">80</text>
     </g>
    </g>
    <g id="text_7">
     <text style="font-size: 12px; font-family: 'Arial', serif; text-anchor: middle" x="137.156875" y="219.839844" transform="rotate(-0 137.156875 219.839844)">Water recovery (%)</text>
    </g>
   </g>
   <g id="matplotlib.axis_2">
    <g id="ytick_1">
     <g id="line2d_7">
      <defs>
       <path id="m5ff14065c7" d="M 0 0 
L -3.5 0 
" style="stroke: #000000; stroke-width: 0.8"/>
      </defs>
      <g>
       <use xlink:href="#m5ff14065c7" x="46.481875" y="190.958906" style="stroke: #000000; stroke-width: 0.8"/>
      </g>
     </g>
     <g id="text_8">
      <text style="font-size: 10px; font-family: 'Arial', serif; text-anchor: end" x="39.481875" y="194.537812" transform="rotate(-0 39.481875 194.537812)">0</text>
     </g>
    </g>
    <g id="ytick_2">
     <g id="line2d_8">
      <g>
       <use xlink:href="#m5ff14065c7" x="46.481875" y="160.928906" style="stroke: #000000; stroke-width: 0.8"/>
      </g>
     </g>
     <g id="text_9">
      <text style="font-size: 10px; font-family: 'Arial', serif; text-anchor: end" x="39.481875" y="164.507812" transform="rotate(-0 39.481875 164.507812)">2</text>
     </g>
    </g>
    <g id="ytick_3">
     <g id="line2d_9">
      <g>
       <use xlink:href="#m5ff14065c7" x="46.481875" y="130.898906" style="stroke: #000000; stroke-width: 0.8"/>
      </g>
     </g>
     <g id="text_10">
      <text style="font-size: 10px; font-family: 'Arial', serif; text-anchor: end" x="39.481875" y="134.477812" transform="rotate(-0 39.481875 134.477812)">4</text>
     </g>
    </g>
    <g id="ytick_4">
     <g id="line2d_10">
      <g>
       <use xlink:href="#m5ff14065c7" x="46.481875" y="100.868906" style="stroke: #000000; stroke-width: 0.8"/>
      </g>
     </g>
     <g id="text_11">
      <text style="font-size: 10px; font-family: 'Arial', serif; text-anchor: end" x="39.481875" y="104.447812" transform="rotate(-0 39.481875 104.447812)">6</text>
     </g>
    </g>
    <g id="ytick_5">
     <g id="line2d_11">
      <g>
       <use xlink:href="#m5ff14065c7" x="46.481875" y="70.838906" style="stroke: #000000; stroke-width: 0.8"/>
      </g>
     </g>
     <g id="text_12">
      <text style="font-size: 10px; font-family: 'Arial', serif; text-anchor: end" x="39.481875" y="74.417812" transform="rotate(-0 39.481875 74.417812)">8</text>
     </g>
    </g>
    <g id="ytick_6">
     <g id="line2d_12">
      <g>
       <use xlink:href="#m5ff14065c7" x="46.481875" y="40.808906" style="stroke: #000000; stroke-width: 0.8"/>
      </g>
     </g>
     <g id="text_13">
      <text style="font-size: 10px; font-family: 'Arial', serif; text-anchor: end" x="39.481875" y="44.387812" transform="rotate(-0 39.481875 44.387812)">10</text>
     </g>
    </g>
    <g id="ytick_7">
     <g id="line2d_13">
      <g>
       <use xlink:href="#m5ff14065c7" x="46.481875" y="10.778906" style="stroke: #000000; stroke-width: 0.8"/>
      </g>
     </g>
     <g id="text_14">
      <text style="font-size: 10px; font-family: 'Arial', serif; text-anchor: end" x="39.481875" y="14.357812" transform="rotate(-0 39.481875 14.357812)">12</text>
     </g>
    </g>
    <g id="text_15">
     <!-- LCOW ($\$$/$m^3$) -->
     <g transform="translate(21.72 137.288906) rotate(-90)">
      <text>
       <tspan x="0" y="-0.59925" style="font-size: 12px; font-family: 'Arial'">L</tspan>
       <tspan x="6.673828" y="-0.59925" style="font-size: 12px; font-family: 'Arial'">C</tspan>
       <tspan x="15.339844" y="-0.59925" style="font-size: 12px; font-family: 'Arial'">O</tspan>
       <tspan x="24.673828" y="-0.59925" style="font-size: 12px; font-family: 'Arial'">W</tspan>
       <tspan x="36" y="-0.59925" style="font-size: 12px; font-family: 'Arial'"> </tspan>
       <tspan x="39.333984" y="-0.59925" style="font-size: 12px; font-family: 'Arial'">(</tspan>
       <tspan x="43.330078" y="-0.59925" style="font-size: 12px; font-family: 'Arial'">$</tspan>
       <tspan x="50.003906" y="-0.59925" style="font-size: 12px; font-family: 'Arial'">/</tspan>
       <tspan x="53.337891" y="-0.59925" style="font-size: 12px; font-family: 'Arial'">m</tspan>
       <tspan x="68.81212" y="-0.59925" style="font-size: 12px; font-family: 'Arial'">)</tspan>
       <tspan x="63.543066" y="-8.9625" style="font-size: 8.4px; font-family: 'Arial'">3</tspan>
      </text>
     </g>
    </g>
   </g>
   <g id="patch_3">
    <path d="M 46.481875 190.958906 
L 46.481875 10.778906 
" style="fill: none; stroke: #000000; stroke-width: 0.8; stroke-linejoin: miter; stroke-linecap: square"/>
   </g>
   <g id="patch_4">
    <path d="M 227.831875 190.958906 
L 227.831875 10.778906 
" style="fill: none; stroke: #000000; stroke-width: 0.8; stroke-linejoin: miter; stroke-linecap: square"/>
   </g>
   <g id="patch_5">
    <path d="M 46.481875 190.958906 
L 227.831875 190.958906 
" style="fill: none; stroke: #000000; stroke-width: 0.8; stroke-linejoin: miter; stroke-linecap: square"/>
   </g>
   <g id="patch_6">
    <path d="M 46.481875 10.778906 
L 227.831875 10.778906 
" style="fill: none; stroke: #000000; stroke-width: 0.8; stroke-linejoin: miter; stroke-linecap: square"/>
   </g>
   <g id="FillBetweenPolyCollection_1"/>
   <g id="FillBetweenPolyCollection_2"/>
   <g id="FillBetweenPolyCollection_3">
    <path d="M 46.481875 190.958906 
L 46.481875 183.945943 
L 57.935559 183.780255 
L 69.389243 183.14008 
L 80.842928 183.07432 
L 92.296612 183.302821 
L 103.750296 183.41456 
L 115.20398 183.401421 
L 126.657664 183.239823 
L 138.111349 182.881781 
L 149.565033 181.654853 
L 161.018717 181.187031 
L 172.472401 180.370734 
L 183.926086 178.826915 
L 195.37977 176.890445 
L 206.833454 174.421481 
L 206.833454 190.958906 
L 206.833454 190.958906 
L 195.37977 190.958906 
L 183.926086 190.958906 
L 172.472401 190.958906 
L 161.018717 190.958906 
L 149.565033 190.958906 
L 138.111349 190.958906 
L 126.657664 190.958906 
L 115.20398 190.958906 
L 103.750296 190.958906 
L 92.296612 190.958906 
L 80.842928 190.958906 
L 69.389243 190.958906 
L 57.935559 190.958906 
L 46.481875 190.958906 
z
" clip-path="url(#p8270204e06)" style="fill: #d9f0d3; stroke: #000000"/>
   </g>
   <g id="FillBetweenPolyCollection_4"/>
   <g id="FillBetweenPolyCollection_5">
    <path d="M 46.481875 183.945943 
L 46.481875 175.633329 
L 57.935559 175.470936 
L 69.389243 174.601279 
L 80.842928 174.571157 
L 92.296612 174.750102 
L 103.750296 174.72212 
L 115.20398 174.459632 
L 126.657664 173.903858 
L 138.111349 172.944605 
L 149.565033 170.804396 
L 161.018717 169.49802 
L 172.472401 167.443007 
L 183.926086 164.280301 
L 195.37977 160.108188 
L 206.833454 154.616484 
L 206.833454 174.421481 
L 206.833454 174.421481 
L 195.37977 176.890445 
L 183.926086 178.826915 
L 172.472401 180.370734 
L 161.018717 181.187031 
L 149.565033 181.654853 
L 138.111349 182.881781 
L 126.657664 183.239823 
L 115.20398 183.401421 
L 103.750296 183.41456 
L 92.296612 183.302821 
L 80.842928 183.07432 
L 69.389243 183.14008 
L 57.935559 183.780255 
L 46.481875 183.945943 
z
" clip-path="url(#p8270204e06)" style="fill: url(#h6b498295d9); stroke: #000000"/>
   </g>
   <g id="FillBetweenPolyCollection_6"/>
   <g id="FillBetweenPolyCollection_7">
    <path d="M 46.481875 175.633329 
L 46.481875 174.610901 
L 57.935559 174.355177 
L 69.389243 173.379538 
L 80.842928 173.300034 
L 92.296612 173.331286 
L 103.750296 173.130873 
L 115.20398 172.656738 
L 126.657664 171.827116 
L 138.111349 170.492551 
L 149.565033 168.181717 
L 161.018717 166.425456 
L 172.472401 163.688726 
L 183.926086 160.0939 
L 195.37977 155.186088 
L 206.833454 148.638788 
L 206.833454 154.616484 
L 206.833454 154.616484 
L 195.37977 160.108188 
L 183.926086 164.280301 
L 172.472401 167.443007 
L 161.018717 169.49802 
L 149.565033 170.804396 
L 138.111349 172.944605 
L 126.657664 173.903858 
L 115.20398 174.459632 
L 103.750296 174.72212 
L 92.296612 174.750102 
L 80.842928 174.571157 
L 69.389243 174.601279 
L 57.935559 175.470936 
L 46.481875 175.633329 
z
" clip-path="url(#p8270204e06)" style="fill: #a6cee3; stroke: #000000"/>
   </g>
   <g id="FillBetweenPolyCollection_8"/>
   <g id="FillBetweenPolyCollection_9">
    <path d="M 46.481875 174.610901 
L 46.481875 173.537351 
L 57.935559 173.183629 
L 69.389243 172.096709 
L 80.842928 171.965356 
L 92.296612 171.84153 
L 103.750296 171.460063 
L 115.20398 170.763699 
L 126.657664 169.646537 
L 138.111349 167.917894 
L 149.565033 165.427905 
L 161.018717 163.199264 
L 172.472401 159.746732 
L 183.926086 155.698178 
L 195.37977 150.017883 
L 206.833454 142.362207 
L 206.833454 148.638788 
L 206.833454 148.638788 
L 195.37977 155.186088 
L 183.926086 160.0939 
L 172.472401 163.688726 
L 161.018717 166.425456 
L 149.565033 168.181717 
L 138.111349 170.492551 
L 126.657664 171.827116 
L 115.20398 172.656738 
L 103.750296 173.130873 
L 92.296612 173.331286 
L 80.842928 173.300034 
L 69.389243 173.379538 
L 57.935559 174.355177 
L 46.481875 174.610901 
z
" clip-path="url(#p8270204e06)" style="fill: url(#h6db2c34249); stroke: #000000"/>
   </g>
   <g id="FillBetweenPolyCollection_10"/>
   <g id="line2d_14">
    <defs>
     <path id="m8ecf2b99a4" d="M -2.5 2.5 
L 2.5 2.5 
L 2.5 -2.5 
L -2.5 -2.5 
z
" style="stroke: #000000; stroke-linejoin: miter"/>
    </defs>
    <g clip-path="url(#p8270204e06)">
     <use xlink:href="#m8ecf2b99a4" x="46.481875" y="173.537591" style="fill: #ffffff; stroke: #000000; stroke-linejoin: miter"/>
    </g>
   </g>
   <g id="line2d_15">
    <g clip-path="url(#p8270204e06)">
     <use xlink:href="#m8ecf2b99a4" x="57.935559" y="173.183877" style="fill: #ffffff; stroke: #000000; stroke-linejoin: miter"/>
    </g>
   </g>
   <g id="line2d_16">
    <g clip-path="url(#p8270204e06)">
     <use xlink:href="#m8ecf2b99a4" x="69.389243" y="172.09698" style="fill: #ffffff; stroke: #000000; stroke-linejoin: miter"/>
    </g>
   </g>
   <g id="line2d_17">
    <g clip-path="url(#p8270204e06)">
     <use xlink:href="#m8ecf2b99a4" x="80.842928" y="171.96563" style="fill: #ffffff; stroke: #000000; stroke-linejoin: miter"/>
    </g>
   </g>
   <g id="line2d_18">
    <g clip-path="url(#p8270204e06)">
     <use xlink:href="#m8ecf2b99a4" x="92.296612" y="171.841805" style="fill: #ffffff; stroke: #000000; stroke-linejoin: miter"/>
    </g>
   </g>
   <g id="line2d_19">
    <g clip-path="url(#p8270204e06)">
     <use xlink:href="#m8ecf2b99a4" x="103.750296" y="171.460342" style="fill: #ffffff; stroke: #000000; stroke-linejoin: miter"/>
    </g>
   </g>
   <g id="line2d_20">
    <g clip-path="url(#p8270204e06)">
     <use xlink:href="#m8ecf2b99a4" x="115.20398" y="170.763987" style="fill: #ffffff; stroke: #000000; stroke-linejoin: miter"/>
    </g>
   </g>
   <g id="line2d_21">
    <g clip-path="url(#p8270204e06)">
     <use xlink:href="#m8ecf2b99a4" x="126.657664" y="169.646842" style="fill: #ffffff; stroke: #000000; stroke-linejoin: miter"/>
    </g>
   </g>
   <g id="line2d_22">
    <g clip-path="url(#p8270204e06)">
     <use xlink:href="#m8ecf2b99a4" x="138.111349" y="167.918226" style="fill: #ffffff; stroke: #000000; stroke-linejoin: miter"/>
    </g>
   </g>
   <g id="line2d_23">
    <defs>
     <path id="mb7e9a74ef4" d="M 0 -2.5 
L -2.5 2.5 
L 2.5 2.5 
z
" style="stroke: #000000; stroke-linejoin: miter"/>
    </defs>
    <g clip-path="url(#p8270204e06)">
     <use xlink:href="#mb7e9a74ef4" x="149.565033" y="165.428278" style="fill: #ffffff; stroke: #000000; stroke-linejoin: miter"/>
    </g>
   </g>
   <g id="line2d_24">
    <g clip-path="url(#p8270204e06)">
     <use xlink:href="#mb7e9a74ef4" x="161.018717" y="163.19967" style="fill: #ffffff; stroke: #000000; stroke-linejoin: miter"/>
    </g>
   </g>
   <g id="line2d_25">
    <g clip-path="url(#p8270204e06)">
     <use xlink:href="#mb7e9a74ef4" x="172.472401" y="159.747191" style="fill: #ffffff; stroke: #000000; stroke-linejoin: miter"/>
    </g>
   </g>
   <g id="line2d_26">
    <defs>
     <path id="m7daba81a6e" d="M 0 3.535534 
L 3.535534 0 
L 0 -3.535534 
L -3.535534 0 
z
" style="stroke: #000000; stroke-linejoin: miter"/>
    </defs>
    <g clip-path="url(#p8270204e06)">
     <use xlink:href="#m7daba81a6e" x="183.926086" y="155.698698" style="fill: #ffffff; stroke: #000000; stroke-linejoin: miter"/>
    </g>
   </g>
   <g id="line2d_27">
    <defs>
     <path id="m9dd744fbff" d="M -0 2.5 
L 2.5 -2.5 
L -2.5 -2.5 
z
" style="stroke: #000000; stroke-linejoin: miter"/>
    </defs>
    <g clip-path="url(#p8270204e06)">
     <use xlink:href="#m9dd744fbff" x="195.37977" y="150.01849" style="fill: #ffffff; stroke: #000000; stroke-linejoin: miter"/>
    </g>
   </g>
   <g id="line2d_28">
    <defs>
     <path id="m2e1f92418f" d="M -0.833333 2.5 
L 0.833333 2.5 
L 0.833333 0.833333 
L 2.5 0.833333 
L 2.5 -0.833333 
L 0.833333 -0.833333 
L 0.833333 -2.5 
L -0.833333 -2.5 
L -0.833333 -0.833333 
L -2.5 -0.833333 
L -2.5 0.833333 
L -0.833333 0.833333 
z
" style="stroke: #000000; stroke-linejoin: miter"/>
    </defs>
    <g clip-path="url(#p8270204e06)">
     <use xlink:href="#m2e1f92418f" x="206.833454" y="142.362928" style="fill: #ffffff; stroke: #000000; stroke-linejoin: miter"/>
    </g>
   </g>
   <g id="legend_1">
    <g id="patch_7">
     <path d="M 54.581875 26.933906 
L 63.581875 26.933906 
L 63.581875 18.878906 
L 54.581875 18.878906 
z
" style="fill: #ffffff; stroke: #000000; stroke-linejoin: miter"/>
    </g>
    <g id="text_16">
     <text style="font-size: 9px; font-family: 'Arial', serif; text-anchor: start" x="70.781875" y="25.988906" transform="rotate(-0 70.781875 25.988906)">CAPEX</text>
    </g>
    <g id="patch_8">
     <path d="M 54.581875 37.632656 
L 63.581875 37.632656 
L 63.581875 29.577656 
L 54.581875 29.577656 
z
" style="fill: url(#h2c815a868b); stroke: #000000; stroke-linejoin: miter"/>
    </g>
    <g id="text_17">
     <text style="font-size: 9px; font-family: 'Arial', serif; text-anchor: start" x="70.781875" y="36.687656" transform="rotate(-0 70.781875 36.687656)">OPEX</text>
    </g>
    <g id="patch_9">
     <path d="M 54.581875 48.331406 
L 63.581875 48.331406 
L 63.581875 40.276406 
L 54.581875 40.276406 
z
" style="fill: #d9f0d3; stroke: #000000; stroke-linejoin: miter"/>
    </g>
    <g id="text_18">
     <text style="font-size: 9px; font-family: 'Arial', serif; text-anchor: start" x="70.781875" y="47.386406" transform="rotate(-0 70.781875 47.386406)">Pumps and ERDs</text>
    </g>
    <g id="patch_10">
     <path d="M 54.581875 59.030156 
L 63.581875 59.030156 
L 63.581875 50.975156 
L 54.581875 50.975156 
z
" style="fill: #a6cee3; stroke: #000000; stroke-linejoin: miter"/>
    </g>
    <g id="text_19">
     <text style="font-size: 9px; font-family: 'Arial', serif; text-anchor: start" x="70.781875" y="58.085156" transform="rotate(-0 70.781875 58.085156)">Membranes</text>
    </g>
    <g id="line2d_29">
     <g>
      <use xlink:href="#m8ecf2b99a4" x="59.081875" y="65.228906" style="fill: #ffffff; stroke: #000000; stroke-linejoin: miter"/>
     </g>
    </g>
    <g id="text_20">
     <text style="font-size: 9px; font-family: 'Arial', serif; text-anchor: start" x="70.781875" y="68.783906" transform="rotate(-0 70.781875 68.783906)">2 stages</text>
    </g>
    <g id="line2d_30">
     <g>
      <use xlink:href="#mb7e9a74ef4" x="150.409375" y="22.433906" style="fill: #ffffff; stroke: #000000; stroke-linejoin: miter"/>
     </g>
    </g>
    <g id="text_21">
     <text style="font-size: 9px; font-family: 'Arial', serif; text-anchor: start" x="162.109375" y="25.988906" transform="rotate(-0 162.109375 25.988906)">3 stages</text>
    </g>
    <g id="line2d_31">
     <g>
      <use xlink:href="#m7daba81a6e" x="150.409375" y="33.238125" style="fill: #ffffff; stroke: #000000; stroke-linejoin: miter"/>
     </g>
    </g>
    <g id="text_22">
     <text style="font-size: 9px; font-family: 'Arial', serif; text-anchor: start" x="162.109375" y="36.793125" transform="rotate(-0 162.109375 36.793125)">4 stages</text>
    </g>
    <g id="line2d_32">
     <g>
      <use xlink:href="#m9dd744fbff" x="150.409375" y="44.042344" style="fill: #ffffff; stroke: #000000; stroke-linejoin: miter"/>
     </g>
    </g>
    <g id="text_23">
     <text style="font-size: 9px; font-family: 'Arial', serif; text-anchor: start" x="162.109375" y="47.597344" transform="rotate(-0 162.109375 47.597344)">5 stages</text>
    </g>
    <g id="line2d_33">
     <g>
      <use xlink:href="#m2e1f92418f" x="150.409375" y="54.846562" style="fill: #ffffff; stroke: #000000; stroke-linejoin: miter"/>
     </g>
    </g>
    <g id="text_24">
     <text style="font-size: 9px; font-family: 'Arial', serif; text-anchor: start" x="162.109375" y="58.401562" transform="rotate(-0 162.109375 58.401562)">6 stages</text>
    </g>
   </g>
  </g>
 </g>
 <defs>
  <clipPath id="p8270204e06">
   <rect x="46.481875" y="10.778906" width="181.35" height="180.18"/>
  </clipPath>
 </defs>
 <defs>
  <pattern id="h6b498295d9" patternUnits="userSpaceOnUse" x="0" y="0" width="72" height="72">
   <rect x="0" y="0" width="73" height="73" fill="#d9f0d3"/>
   <path d="M -36 36 
L 36 -36 
M -30 42 
L 42 -30 
M -24 48 
L 48 -24 
M -18 54 
L 54 -18 
M -12 60 
L 60 -12 
M -6 66 
L 66 -6 
M 0 72 
L 72 0 
M 6 78 
L 78 6 
M 12 84 
L 84 12 
M 18 90 
L 90 18 
M 24 96 
L 96 24 
M 30 102 
L 102 30 
M 36 108 
L 108 36 
" style="fill: #000000; stroke: #000000; stroke-width: 1.0; stroke-linecap: butt; stroke-linejoin: miter"/>
  </pattern>
  <pattern id="h6db2c34249" patternUnits="userSpaceOnUse" x="0" y="0" width="72" height="72">
   <rect x="0" y="0" width="73" height="73" fill="#a6cee3"/>
   <path d="M -36 36 
L 36 -36 
M -30 42 
L 42 -30 
M -24 48 
L 48 -24 
M -18 54 
L 54 -18 
M -12 60 
L 60 -12 
M -6 66 
L 66 -6 
M 0 72 
L 72 0 
M 6 78 
L 78 6 
M 12 84 
L 84 12 
M 18 90 
L 90 18 
M 24 96 
L 96 24 
M 30 102 
L 102 30 
M 36 108 
L 108 36 
" style="fill: #000000; stroke: #000000; stroke-width: 1.0; stroke-linecap: butt; stroke-linejoin: miter"/>
  </pattern>
  <pattern id="h2c815a868b" patternUnits="userSpaceOnUse" x="0" y="0" width="72" height="72">
   <rect x="0" y="0" width="73" height="73" fill="#ffffff"/>
   <path d="M -36 36 
L 36 -36 
M -30 42 
L 42 -30 
M -24 48 
L 48 -24 
M -18 54 
L 54 -18 
M -12 60 
L 60 -12 
M -6 66 
L 66 -6 
M 0 72 
L 72 0 
M 6 78 
L 78 6 
M 12 84 
L 84 12 
M 18 90 
L 90 18 
M 24 96 
L 96 24 
M 30 102 
L 102 30 
M 36 108 
L 108 36 
" style="fill: #000000; stroke: #000000; stroke-width: 1.0; stroke-linecap: butt; stroke-linejoin: miter"/>
  </pattern>
 </defs>
</svg>
