<?xml version="1.0" encoding="utf-8" standalone="no"?>
<!DOCTYPE svg PUBLIC "-//W3C//DTD SVG 1.1//EN"
  "http://www.w3.org/Graphics/SVG/1.1/DTD/svg11.dtd">
<svg xmlns:xlink="http://www.w3.org/1999/xlink" width="382.660938pt" height="275.548063pt" viewBox="0 0 382.660938 275.548063" xmlns="http://www.w3.org/2000/svg" version="1.1">
 <metadata>
  <rdf:RDF xmlns:dc="http://purl.org/dc/elements/1.1/" xmlns:cc="http://creativecommons.org/ns#" xmlns:rdf="http://www.w3.org/1999/02/22-rdf-syntax-ns#">
   <cc:Work>
    <dc:type rdf:resource="http://purl.org/dc/dcmitype/StillImage"/>
    <dc:date>2025-10-27T15:54:55.210824</dc:date>
    <dc:format>image/svg+xml</dc:format>
    <dc:creator>
     <cc:Agent>
      <dc:title>Matplotlib v3.10.1, https://matplotlib.org/</dc:title>
     </cc:Agent>
    </dc:creator>
   </cc:Work>
  </rdf:RDF>
 </metadata>
 <defs>
  <style type="text/css">*{stroke-linejoin: round; stroke-linecap: butt}</style>
 </defs>
 <g id="figure_1">
  <g id="patch_1">
   <path d="M 0 275.548063 
L 382.660938 275.548063 
L 382.660938 0 
L 0 0 
z
" style="fill: #ffffff"/>
  </g>
  <g id="axes_1">
   <g id="patch_2">
    <path d="M 188.55 236.934 
L 369.9 236.934 
L 369.9 56.754 
L 188.55 56.754 
z
" style="fill: #ffffff"/>
   </g>
   <g id="FillBetweenPolyCollection_1">
    <path d="M 369.9 56.754 
L 7.2 56.754 
L 7.2 78.3756 
L 369.9 78.3756 
L 369.9 78.3756 
L 369.9 56.754 
z
" style="fill: #d6d6d6"/>
   </g>
   <g id="FillBetweenPolyCollection_2"/>
   <g id="FillBetweenPolyCollection_3">
    <path d="M 369.9 71.1684 
L 7.2 71.1684 
L 7.2 92.79 
L 369.9 92.79 
L 369.9 92.79 
L 369.9 71.1684 
z
" style="fill: #d6d6d6"/>
   </g>
   <g id="FillBetweenPolyCollection_4"/>
   <g id="FillBetweenPolyCollection_5">
    <path d="M 369.9 128.826 
L 7.2 128.826 
L 7.2 150.4476 
L 369.9 150.4476 
L 369.9 150.4476 
L 369.9 128.826 
z
" style="fill: #d6d6d6"/>
   </g>
   <g id="FillBetweenPolyCollection_6"/>
   <g id="FillBetweenPolyCollection_7">
    <path d="M 369.9 143.2404 
L 7.2 143.2404 
L 7.2 164.862 
L 369.9 164.862 
L 369.9 164.862 
L 369.9 143.2404 
z
" style="fill: #d6d6d6"/>
   </g>
   <g id="FillBetweenPolyCollection_8"/>
   <g id="FillBetweenPolyCollection_9">
    <path d="M 369.9 200.898 
L 7.2 200.898 
L 7.2 222.5196 
L 369.9 222.5196 
L 369.9 222.5196 
L 369.9 200.898 
z
" style="fill: #d6d6d6"/>
   </g>
   <g id="FillBetweenPolyCollection_10"/>
   <g id="FillBetweenPolyCollection_11">
    <path d="M 369.9 215.3124 
L 7.2 215.3124 
L 7.2 236.934 
L 369.9 236.934 
L 369.9 236.934 
L 369.9 215.3124 
z
" style="fill: #d6d6d6"/>
   </g>
   <g id="FillBetweenPolyCollection_12"/>
   <g id="matplotlib.axis_1">
    <g id="xtick_1">
     <g id="line2d_1">
      <defs>
       <path id="ma1c2b9eb08" d="M 0 0 
L 0 3.5 
" style="stroke: #000000; stroke-width: 0.8"/>
      </defs>
      <g>
       <use xlink:href="#ma1c2b9eb08" x="188.55" y="236.934" style="stroke: #000000; stroke-width: 0.8"/>
      </g>
     </g>
     <g id="text_1">
      <text style="font-size: 10px; font-family: 'Arial', serif; text-anchor: middle" x="188.55" y="251.091813" transform="rotate(-0 188.55 251.091813)">−30</text>
     </g>
    </g>
    <g id="xtick_2">
     <g id="line2d_2">
      <g>
       <use xlink:href="#ma1c2b9eb08" x="208.7" y="236.934" style="stroke: #000000; stroke-width: 0.8"/>
      </g>
     </g>
     <g id="text_2">
      <text style="font-size: 10px; font-family: 'Arial', serif; text-anchor: middle" x="208.7" y="251.091813" transform="rotate(-0 208.7 251.091813)">−20</text>
     </g>
    </g>
    <g id="xtick_3">
     <g id="line2d_3">
      <g>
       <use xlink:href="#ma1c2b9eb08" x="228.85" y="236.934" style="stroke: #000000; stroke-width: 0.8"/>
      </g>
     </g>
     <g id="text_3">
      <text style="font-size: 10px; font-family: 'Arial', serif; text-anchor: middle" x="228.85" y="251.091813" transform="rotate(-0 228.85 251.091813)">−10</text>
     </g>
    </g>
    <g id="xtick_4">
     <g id="line2d_4">
      <g>
       <use xlink:href="#ma1c2b9eb08" x="249" y="236.934" style="stroke: #000000; stroke-width: 0.8"/>
      </g>
     </g>
     <g id="text_4">
      <text style="font-size: 10px; font-family: 'Arial', serif; text-anchor: middle" x="249" y="251.091813" transform="rotate(-0 249 251.091813)">0</text>
     </g>
    </g>
    <g id="xtick_5">
     <g id="line2d_5">
      <g>
       <use xlink:href="#ma1c2b9eb08" x="269.15" y="236.934" style="stroke: #000000; stroke-width: 0.8"/>
      </g>
     </g>
     <g id="text_5">
      <text style="font-size: 10px; font-family: 'Arial', serif; text-anchor: middle" x="269.15" y="251.091813" transform="rotate(-0 269.15 251.091813)">10</text>
     </g>
    </g>
    <g id="xtick_6">
     <g id="line2d_6">
      <g>
       <use xlink:href="#ma1c2b9eb08" x="289.3" y="236.934" style="stroke: #000000; stroke-width: 0.8"/>
      </g>
     </g>
     <g id="text_6">
      <text style="font-size: 10px; font-family: 'Arial', serif; text-anchor: middle" x="289.3" y="251.091813" transform="rotate(-0 289.3 251.091813)">20</text>
     </g>
    </g>
    <g id="xtick_7">
     <g id="line2d_7">
      <g>
       <use xlink:href="#ma1c2b9eb08" x="309.45" y="236.934" style="stroke: #000000; stroke-width: 0.8"/>
      </g>
     </g>
     <g id="text_7">
      <text style="font-size: 10px; font-family: 'Arial', serif; text-anchor: middle" x="309.45" y="251.091813" transform="rotate(-0 309.45 251.091813)">30</text>
     </g>
    </g>
    <g id="xtick_8">
     <g id="line2d_8">
      <g>
       <use xlink:href="#ma1c2b9eb08" x="329.6" y="236.934" style="stroke: #000000; stroke-width: 0.8"/>
      </g>
     </g>
     <g id="text_8">
      <text style="font-size: 10px; font-family: 'Arial', serif; text-anchor: middle" x="329.6" y="251.091813" transform="rotate(-0 329.6 251.091813)">40</text>
     </g>
    </g>
    <g id="xtick_9">
     <g id="line2d_9">
      <g>
       <use xlink:href="#ma1c2b9eb08" x="349.75" y="236.934" style="stroke: #000000; stroke-width: 0.8"/>
      </g>
     </g>
     <g id="text_9">
      <text style="font-size: 10px; font-family: 'Arial', serif; text-anchor: middle" x="349.75" y="251.091813" transform="rotate(-0 349.75 251.091813)">50</text>
     </g>
    </g>
    <g id="xtick_10">
     <g id="line2d_10">
      <g>
       <use xlink:href="#ma1c2b9eb08" x="369.9" y="236.934" style="stroke: #000000; stroke-width: 0.8"/>
      </g>
     </g>
     <g id="text_10">
      <text style="font-size: 10px; font-family: 'Arial', serif; text-anchor: middle" x="369.9" y="251.091813" transform="rotate(-0 369.9 251.091813)">60</text>
     </g>
    </g>
    <g id="text_11">
     <text style="font-size: 12px; font-family: 'Arial', serif; text-anchor: middle" x="279.225" y="265.822438" transform="rotate(-0 279.225 265.822438)">Change in LCOW (%)</text>
    </g>
   </g>
   <g id="matplotlib.axis_2">
    <g id="ytick_1">
     <g id="line2d_11">
      <defs>
       <path id="mb152164a7d" d="M 0 0 
L -3.5 0 
" style="stroke: #000000; stroke-width: 0.8"/>
      </defs>
      <g>
       <use xlink:href="#mb152164a7d" x="188.55" y="74.772" style="stroke: #000000; stroke-width: 0.8"/>
      </g>
     </g>
     <g id="text_12">
      <text style="font-size: 10px; font-family: 'Arial', serif; text-anchor: end" x="181.55" y="77.357156" transform="rotate(-0 181.55 77.357156)">Max. pump pressure</text>
     </g>
    </g>
    <g id="ytick_2">
     <g id="line2d_12">
      <g>
       <use xlink:href="#mb152164a7d" x="188.55" y="110.808" style="stroke: #000000; stroke-width: 0.8"/>
      </g>
     </g>
     <g id="text_13">
      <text style="font-size: 10px; font-family: 'Arial', serif; text-anchor: end" x="181.55" y="113.334563" transform="rotate(-0 181.55 113.334563)">Water permeability</text>
     </g>
    </g>
    <g id="ytick_3">
     <g id="line2d_13">
      <g>
       <use xlink:href="#mb152164a7d" x="188.55" y="146.844" style="stroke: #000000; stroke-width: 0.8"/>
      </g>
     </g>
     <g id="text_14">
      <text style="font-size: 10px; font-family: 'Arial', serif; text-anchor: end" x="181.55" y="149.429156" transform="rotate(-0 181.55 149.429156)">LSRRO mem. cost</text>
     </g>
    </g>
    <g id="ytick_4">
     <g id="line2d_14">
      <g>
       <use xlink:href="#mb152164a7d" x="188.55" y="182.88" style="stroke: #000000; stroke-width: 0.8"/>
      </g>
     </g>
     <g id="text_15">
      <text style="font-size: 10px; font-family: 'Arial', serif; text-anchor: end" x="181.55" y="185.465156" transform="rotate(-0 181.55 185.465156)">Pump cost</text>
     </g>
    </g>
    <g id="ytick_5">
     <g id="line2d_15">
      <g>
       <use xlink:href="#mb152164a7d" x="188.55" y="218.916" style="stroke: #000000; stroke-width: 0.8"/>
      </g>
     </g>
     <g id="text_16">
      <text style="font-size: 10px; font-family: 'Arial', serif; text-anchor: end" x="181.55" y="221.5035" transform="rotate(-0 181.55 221.5035)">Pump efficiency</text>
     </g>
    </g>
   </g>
   <g id="patch_3">
    <path d="M 188.55 236.934 
L 188.55 56.754 
" style="fill: none; stroke: #000000; stroke-width: 0.8; stroke-linejoin: miter; stroke-linecap: square"/>
   </g>
   <g id="patch_4">
    <path d="M 369.9 236.934 
L 369.9 56.754 
" style="fill: none; stroke: #000000; stroke-width: 0.8; stroke-linejoin: miter; stroke-linecap: square"/>
   </g>
   <g id="patch_5">
    <path d="M 188.55 236.934 
L 369.9 236.934 
" style="fill: none; stroke: #000000; stroke-width: 0.8; stroke-linejoin: miter; stroke-linecap: square"/>
   </g>
   <g id="patch_6">
    <path d="M 188.55 56.754 
L 369.9 56.754 
" style="fill: none; stroke: #000000; stroke-width: 0.8; stroke-linejoin: miter; stroke-linecap: square"/>
   </g>
   <g id="patch_7">
    <path d="M 249 60.3576 
L 339.552343 60.3576 
L 339.552343 74.772 
L 249 74.772 
z
" clip-path="url(#p658556cb7f)" style="fill: url(#h16356cb16d); stroke: #000000; stroke-linejoin: miter"/>
   </g>
   <g id="patch_8">
    <path d="M 249 60.3576 
L 211.17697 60.3576 
L 211.17697 74.772 
L 249 74.772 
z
" clip-path="url(#p658556cb7f)" style="fill: #7db6df; stroke: #000000; stroke-linejoin: miter"/>
   </g>
   <g id="patch_9">
    <path d="M 249 74.772 
L 354.900542 74.772 
L 354.900542 89.1864 
L 249 89.1864 
z
" clip-path="url(#p658556cb7f)" style="fill: url(#h6441a6903c); stroke: #000000; stroke-linejoin: miter"/>
   </g>
   <g id="patch_10">
    <path d="M 249 74.772 
L 204.217475 74.772 
L 204.217475 89.1864 
L 249 89.1864 
z
" clip-path="url(#p658556cb7f)" style="fill: #ff5d5d; stroke: #000000; stroke-linejoin: miter"/>
   </g>
   <g id="patch_11">
    <path d="M 249 96.3936 
L 255.730241 96.3936 
L 255.730241 110.808 
L 249 110.808 
z
" clip-path="url(#p658556cb7f)" style="fill: url(#h16356cb16d); stroke: #000000; stroke-linejoin: miter"/>
   </g>
   <g id="patch_12">
    <path d="M 249 96.3936 
L 244.38662 96.3936 
L 244.38662 110.808 
L 249 110.808 
z
" clip-path="url(#p658556cb7f)" style="fill: #7db6df; stroke: #000000; stroke-linejoin: miter"/>
   </g>
   <g id="patch_13">
    <path d="M 249 110.808 
L 257.247896 110.808 
L 257.247896 125.2224 
L 249 125.2224 
z
" clip-path="url(#p658556cb7f)" style="fill: url(#h6441a6903c); stroke: #000000; stroke-linejoin: miter"/>
   </g>
   <g id="patch_14">
    <path d="M 249 110.808 
L 243.346267 110.808 
L 243.346267 125.2224 
L 249 125.2224 
z
" clip-path="url(#p658556cb7f)" style="fill: #ff5d5d; stroke: #000000; stroke-linejoin: miter"/>
   </g>
   <g id="patch_15">
    <path d="M 249 132.4296 
L 239.25197 132.4296 
L 239.25197 146.844 
L 249 146.844 
z
" clip-path="url(#p658556cb7f)" style="fill: url(#h16356cb16d); stroke: #000000; stroke-linejoin: miter"/>
   </g>
   <g id="patch_16">
    <path d="M 249 132.4296 
L 258.22286 132.4296 
L 258.22286 146.844 
L 249 146.844 
z
" clip-path="url(#p658556cb7f)" style="fill: #7db6df; stroke: #000000; stroke-linejoin: miter"/>
   </g>
   <g id="patch_17">
    <path d="M 249 146.844 
L 237.193903 146.844 
L 237.193903 161.2584 
L 249 161.2584 
z
" clip-path="url(#p658556cb7f)" style="fill: url(#h6441a6903c); stroke: #000000; stroke-linejoin: miter"/>
   </g>
   <g id="patch_18">
    <path d="M 249 146.844 
L 260.179882 146.844 
L 260.179882 161.2584 
L 249 161.2584 
z
" clip-path="url(#p658556cb7f)" style="fill: #ff5d5d; stroke: #000000; stroke-linejoin: miter"/>
   </g>
   <g id="patch_19">
    <path d="M 249 168.4656 
L 232.185917 168.4656 
L 232.185917 182.88 
L 249 182.88 
z
" clip-path="url(#p658556cb7f)" style="fill: url(#h16356cb16d); stroke: #000000; stroke-linejoin: miter"/>
   </g>
   <g id="patch_20">
    <path d="M 249 168.4656 
L 265.65028 168.4656 
L 265.65028 182.88 
L 249 182.88 
z
" clip-path="url(#p658556cb7f)" style="fill: #7db6df; stroke: #000000; stroke-linejoin: miter"/>
   </g>
   <g id="patch_21">
    <path d="M 249 182.88 
L 231.99672 182.88 
L 231.99672 197.2944 
L 249 197.2944 
z
" clip-path="url(#p658556cb7f)" style="fill: url(#h6441a6903c); stroke: #000000; stroke-linejoin: miter"/>
   </g>
   <g id="patch_22">
    <path d="M 249 182.88 
L 265.807275 182.88 
L 265.807275 197.2944 
L 249 197.2944 
z
" clip-path="url(#p658556cb7f)" style="fill: #ff5d5d; stroke: #000000; stroke-linejoin: miter"/>
   </g>
   <g id="patch_23">
    <path d="M 249 204.5016 
L 263.946922 204.5016 
L 263.946922 218.916 
L 249 218.916 
z
" clip-path="url(#p658556cb7f)" style="fill: url(#h16356cb16d); stroke: #000000; stroke-linejoin: miter"/>
   </g>
   <g id="patch_24">
    <path d="M 249 204.5016 
L 238.951338 204.5016 
L 238.951338 218.916 
L 249 218.916 
z
" clip-path="url(#p658556cb7f)" style="fill: #7db6df; stroke: #000000; stroke-linejoin: miter"/>
   </g>
   <g id="patch_25">
    <path d="M 249 218.916 
L 263.036465 218.916 
L 263.036465 233.3304 
L 249 233.3304 
z
" clip-path="url(#p658556cb7f)" style="fill: url(#h6441a6903c); stroke: #000000; stroke-linejoin: miter"/>
   </g>
   <g id="patch_26">
    <path d="M 249 218.916 
L 239.541853 218.916 
L 239.541853 233.3304 
L 249 233.3304 
z
" clip-path="url(#p658556cb7f)" style="fill: #ff5d5d; stroke: #000000; stroke-linejoin: miter"/>
   </g>
   <g id="patch_27">
    <path d="M 228.6485 74.772 
L 229.0515 74.772 
L 229.0515 74.772 
L 228.6485 74.772 
z
" clip-path="url(#p658556cb7f)" style="fill: #7db6df; stroke: #000000; stroke-linejoin: miter"/>
   </g>
   <g id="patch_28">
    <path d="M 228.6485 74.772 
L 229.0515 74.772 
L 229.0515 74.772 
L 228.6485 74.772 
z
" clip-path="url(#p658556cb7f)" style="fill: #ff5d5d; stroke: #000000; stroke-linejoin: miter"/>
   </g>
   <g id="patch_29">
    <path d="M 228.6485 74.772 
L 229.0515 74.772 
L 229.0515 74.772 
L 228.6485 74.772 
z
" clip-path="url(#p658556cb7f)" style="fill: url(#h4461494288); stroke: #000000; stroke-linejoin: miter"/>
   </g>
   <g id="patch_30">
    <path d="M 228.6485 74.772 
L 229.0515 74.772 
L 229.0515 74.772 
L 228.6485 74.772 
z
" clip-path="url(#p658556cb7f)" style="fill: #ffffff; stroke: #000000; stroke-linejoin: miter"/>
   </g>
   <g id="legend_1">
    <g id="patch_31">
     <path d="M 203.099766 18.855 
L 212.099766 18.855 
L 212.099766 10.8 
L 203.099766 10.8 
z
" style="fill: #7db6df; stroke: #000000; stroke-linejoin: miter"/>
    </g>
    <g id="text_17">
     <text style="font-size: 9px; font-family: 'Arial', serif; text-anchor: start" x="219.299766" y="17.91" transform="rotate(-0 219.299766 17.91)">Case A (65 g/L TDS to 70% WR)</text>
    </g>
    <g id="patch_32">
     <path d="M 203.099766 29.659219 
L 212.099766 29.659219 
L 212.099766 21.604219 
L 203.099766 21.604219 
z
" style="fill: #ff5d5d; stroke: #000000; stroke-linejoin: miter"/>
    </g>
    <g id="text_18">
     <text style="font-size: 9px; font-family: 'Arial', serif; text-anchor: start" x="219.299766" y="28.714219" transform="rotate(-0 219.299766 28.714219)">Case B (125 g/L TDS to 50% WR)</text>
    </g>
    <g id="patch_33">
     <path d="M 203.099766 40.463437 
L 212.099766 40.463437 
L 212.099766 32.408437 
L 203.099766 32.408437 
z
" style="fill: url(#h4461494288); stroke: #000000; stroke-linejoin: miter"/>
    </g>
    <g id="text_19">
     <text style="font-size: 9px; font-family: 'Arial', serif; text-anchor: start" x="219.299766" y="39.518437" transform="rotate(-0 219.299766 39.518437)">-20%</text>
    </g>
    <g id="patch_34">
     <path d="M 203.099766 51.162187 
L 212.099766 51.162187 
L 212.099766 43.107187 
L 203.099766 43.107187 
z
" style="fill: #ffffff; stroke: #000000; stroke-linejoin: miter"/>
    </g>
    <g id="text_20">
     <text style="font-size: 9px; font-family: 'Arial', serif; text-anchor: start" x="219.299766" y="50.217187" transform="rotate(-0 219.299766 50.217187)">+20%</text>
    </g>
   </g>
  </g>
 </g>
 <defs>
  <clipPath id="p658556cb7f">
   <rect x="188.55" y="56.754" width="181.35" height="180.18"/>
  </clipPath>
 </defs>
 <defs>
  <pattern id="h16356cb16d" patternUnits="userSpaceOnUse" x="0" y="0" width="72" height="72">
   <rect x="0" y="0" width="73" height="73" fill="#7db6df"/>
   <path d="M -36 36 
L 36 -36 
M -32 40 
L 40 -32 
M -28 44 
L 44 -28 
M -24 48 
L 48 -24 
M -20 52 
L 52 -20 
M -16 56 
L 56 -16 
M -12 60 
L 60 -12 
M -8 64 
L 64 -8 
M -4 68 
L 68 -4 
M 0 72 
L 72 0 
M 4 76 
L 76 4 
M 8 80 
L 80 8 
M 12 84 
L 84 12 
M 16 88 
L 88 16 
M 20 92 
L 92 20 
M 24 96 
L 96 24 
M 28 100 
L 100 28 
M 32 104 
L 104 32 
M 36 108 
L 108 36 
" style="fill: #000000; stroke: #000000; stroke-width: 1.0; stroke-linecap: butt; stroke-linejoin: miter"/>
  </pattern>
  <pattern id="h6441a6903c" patternUnits="userSpaceOnUse" x="0" y="0" width="72" height="72">
   <rect x="0" y="0" width="73" height="73" fill="#ff5d5d"/>
   <path d="M -36 36 
L 36 -36 
M -32 40 
L 40 -32 
M -28 44 
L 44 -28 
M -24 48 
L 48 -24 
M -20 52 
L 52 -20 
M -16 56 
L 56 -16 
M -12 60 
L 60 -12 
M -8 64 
L 64 -8 
M -4 68 
L 68 -4 
M 0 72 
L 72 0 
M 4 76 
L 76 4 
M 8 80 
L 80 8 
M 12 84 
L 84 12 
M 16 88 
L 88 16 
M 20 92 
L 92 20 
M 24 96 
L 96 24 
M 28 100 
L 100 28 
M 32 104 
L 104 32 
M 36 108 
L 108 36 
" style="fill: #000000; stroke: #000000; stroke-width: 1.0; stroke-linecap: butt; stroke-linejoin: miter"/>
  </pattern>
  <pattern id="h4461494288" patternUnits="userSpaceOnUse" x="0" y="0" width="72" height="72">
   <rect x="0" y="0" width="73" height="73" fill="#ffffff"/>
   <path d="M -36 36 
L 36 -36 
M -32 40 
L 40 -32 
M -28 44 
L 44 -28 
M -24 48 
L 48 -24 
M -20 52 
L 52 -20 
M -16 56 
L 56 -16 
M -12 60 
L 60 -12 
M -8 64 
L 64 -8 
M -4 68 
L 68 -4 
M 0 72 
L 72 0 
M 4 76 
L 76 4 
M 8 80 
L 80 8 
M 12 84 
L 84 12 
M 16 88 
L 88 16 
M 20 92 
L 92 20 
M 24 96 
L 96 24 
M 28 100 
L 100 28 
M 32 104 
L 104 32 
M 36 108 
L 108 36 
" style="fill: #000000; stroke: #000000; stroke-width: 1.0; stroke-linecap: butt; stroke-linejoin: miter"/>
  </pattern>
 </defs>
</svg>
